<?xml version="1.0" encoding="utf-8"?>
<!-- Generator: Adobe Illustrator 23.1.0, SVG Export Plug-In . SVG Version: 6.00 Build 0)  -->
<svg version="1.1" id="Layer_1" xmlns="http://www.w3.org/2000/svg" xmlns:xlink="http://www.w3.org/1999/xlink" x="0px" y="0px"
	 viewBox="0 0 20 13" style="enable-background:new 0 0 20 13;" xml:space="preserve">
<style type="text/css">
	.st0{fill:#6E5A66;}
</style>
<g>
	<path class="st0" d="M19.99,1.31c0-0.02,0.02-0.04,0.01-0.06l-6.1,5.36l6.1,5.19c0-0.04-0.01-0.07-0.01-0.11V1.31L19.99,1.31z"/>
	<path class="st0" d="M12.96,7.44l-2.49,2.19c-0.13,0.11-0.29,0.17-0.45,0.17c-0.16,0-0.32-0.05-0.44-0.16L7.09,7.52l-6.14,5.4
		C1.11,12.96,1.27,13,1.43,13h17.18c0.25,0,0.48-0.07,0.69-0.17L12.96,7.44z"/>
	<path class="st0" d="M10.01,8.38l9.31-8.19C19.12,0.08,18.87,0,18.61,0H1.43c-0.34,0-0.66,0.12-0.9,0.31L10.01,8.38z"/>
	<path class="st0" d="M0,1.51v10.18c0,0.12,0.03,0.23,0.06,0.34l6.06-5.32L0,1.51z"/>
</g>
</svg>
