<?xml version="1.0" encoding="utf-8"?>
<!-- Generator: Adobe Illustrator 23.1.0, SVG Export Plug-In . SVG Version: 6.00 Build 0)  -->
<svg version="1.1" id="Layer_1" xmlns="http://www.w3.org/2000/svg" xmlns:xlink="http://www.w3.org/1999/xlink" x="0px" y="0px"
	 viewBox="0 0 20 17" style="enable-background:new 0 0 20 17;" xml:space="preserve">
<style type="text/css">
	.st0{fill:#FFFFFF;}
</style>
<g>
	<path class="st0" d="M7.97,16.25L15.9,17c0.06,0.01,0.13,0,0.19-0.02c0.29-0.09,0.93-0.34,1.22-0.84c0.17-0.3,0.19-0.65,0.07-1.08
		v0c-0.07-0.23,0.03-0.48,0.23-0.59h0c0.11-0.06,1.08-0.67,0.67-1.79l0,0c-0.08-0.23,0.01-0.49,0.21-0.62l0,0
		c0.1-0.06,0.95-0.62,0.54-1.66l0,0c-0.1-0.24,0-0.52,0.23-0.64l0,0c0.01,0,0.8-0.45,0.74-1.17c-0.04-0.54-1.07-0.74-1.34-0.77
		l-5.28-0.54c-0.34-0.03-0.54-0.4-0.4-0.71v0c0.28-0.63,0.97-2.5,0.81-3.61c-0.17-1.11-0.53-2.13-0.68-2.54
		c-0.03-0.09-0.09-0.16-0.16-0.22c-0.07-0.06-0.17-0.12-0.29-0.16c-0.23-0.08-0.47-0.06-0.73,0.05c-0.16,0.07-0.27,0.24-0.29,0.42
		L11.43,2.9l-0.04,0.08c-0.04,0.09-1.07,2.27-3.34,4.72L7.99,7.77L6.96,8.3L6.74,8.36l-0.58,6.52c-0.02,0.28,0.18,0.52,0.45,0.55
		l0,0c0.09,0.01,0.17,0.04,0.24,0.09l0.89,0.64C7.8,16.21,7.88,16.25,7.97,16.25z"/>
	<path class="st0" d="M0,16.06l5.01,0.47l0.36-4L5.8,7.73L0.79,7.26L0,16.06z"/>
</g>
</svg>
