<?xml version="1.0" encoding="utf-8"?>
<!-- Generator: Adobe Illustrator 23.1.0, SVG Export Plug-In . SVG Version: 6.00 Build 0)  -->
<svg version="1.1" id="Layer_1" xmlns="http://www.w3.org/2000/svg" xmlns:xlink="http://www.w3.org/1999/xlink" x="0px" y="0px"
	 viewBox="0 0 200 56" style="enable-background:new 0 0 200 56;" xml:space="preserve">
<style type="text/css">
	.st0{fill:#006FB9;}
	.st1{fill:#2AB24B;}
</style>
<g>
	<g>
		<path class="st0" d="M45.45,36.39c-4.91-1.58-11.36-3.2-18.28-4.57c-4.25-0.84-8.38-1.53-12.12-2.04
			c-0.2-0.03-0.39-0.05-0.59-0.08c-0.03-0.01-0.07-0.01-0.1-0.01C6.1,28.61,0.94,28.62,0.11,29.25c-0.02,0.05-0.05,0.1-0.08,0.14
			c0,0.03,0,0.07,0.01,0.1h0c0.01,0.1,0.02,0.2,0.02,0.31c0.01,0.12,0.01,0.24,0.02,0.36c0.01,0.13,0.02,0.26,0.03,0.39
			c0.01,0.12,0.02,0.24,0.04,0.36c0.01,0.13,0.03,0.25,0.04,0.38c0.01,0.12,0.03,0.25,0.05,0.38c0.01,0.12,0.03,0.24,0.05,0.36
			c0.02,0.14,0.04,0.28,0.07,0.42c0.02,0.1,0.03,0.21,0.05,0.31c0.04,0.24,0.08,0.47,0.13,0.71c0.01,0.06,0.03,0.12,0.04,0.19
			c0.04,0.18,0.08,0.36,0.12,0.54c0.02,0.09,0.04,0.18,0.06,0.27c0.02,0.11,0.05,0.21,0.07,0.32c0,0,0,0,0,0
			c0.09,0.34,0.18,0.69,0.27,1.02c0.86-0.37,2.81-0.63,7.33-0.31c0.05,0,0.1,0.01,0.15,0.01c-0.03-0.32-0.05-0.64-0.07-0.96
			c1.98,0.15,4.21,0.4,6.6,0.73c0.12-4.14,13.99-1.45,30.12,1.75c0.04-0.11,0.07-0.11,0.11-0.22c3.81,1.22,6.54,2.33,7.53,3.23
			c0.05-0.1,0.06-0.27,0.1-0.37c-1.12-0.92-3.8-2.06-7.54-3.27C45.45,36.4,45.45,36.4,45.45,36.39z"/>
		<path class="st0" d="M25.76,38.9c-4.19-0.83-8.24-1.5-11.86-1.96C6.78,36.02,2.25,36,1.33,36.51c0.02,0.05,0.04,0.11,0.05,0.16
			l0,0c0.03,0.08,0.06,0.16,0.08,0.24c0.07,0.2,0.14,0.4,0.21,0.6c0.04,0.11,0.08,0.22,0.12,0.33c0.07,0.19,0.15,0.38,0.22,0.57
			c0.04,0.1,0.09,0.21,0.13,0.32c0.08,0.19,0.16,0.39,0.25,0.58c0.04,0.1,0.08,0.19,0.13,0.29C2.62,39.8,2.71,40,2.81,40.21
			c0.04,0.08,0.08,0.16,0.12,0.24c0.12,0.23,0.24,0.46,0.36,0.69c0.03,0.05,0.05,0.1,0.08,0.15c0.3,0.55,0.61,1.09,0.95,1.63
			c0,0,0,0,0,0c0.19,0.3,0.38,0.6,0.59,0.89c0.59-0.32,1.99-0.57,5.44-0.35c-0.12-0.32-0.23-0.65-0.34-0.98
			c0.16,0.01,0.32,0.02,0.49,0.03c1.48,0.11,3.13,0.28,4.92,0.52c-0.34-4.62,10.68-2.82,26.78,0.68c0.06-0.1,0.12-0.09,0.17-0.19
			c3.13,1.01,5.41,1.97,6.43,2.74c0.07-0.08,0.14-0.27,0.22-0.36c-1.52-1.14-5.46-2.61-10.82-4.09
			C34.5,40.79,30.24,39.79,25.76,38.9z"/>
		<path class="st0" d="M29.76,47.52c-0.02,0-0.04-0.01-0.07-0.02c-1.74-0.41-3.56-0.81-5.43-1.18c-3.01-0.6-5.93-1.08-8.57-1.44
			c0,0,0,0,0-0.01c-5.79-0.8-9.51-0.84-10.36-0.46c0.03,0.05,0.07,0.09,0.1,0.13c0,0,0,0,0,0c0.07,0.09,0.14,0.19,0.21,0.28
			c0.1,0.13,0.19,0.26,0.29,0.38c0.09,0.12,0.19,0.24,0.28,0.35c0.1,0.13,0.21,0.26,0.31,0.38c0.09,0.11,0.18,0.22,0.28,0.33
			c0.12,0.14,0.23,0.27,0.36,0.41c0.08,0.09,0.17,0.19,0.26,0.29c0.14,0.15,0.28,0.3,0.43,0.45c0.07,0.07,0.14,0.15,0.21,0.22
			c0.2,0.2,0.41,0.41,0.61,0.6c0.02,0.02,0.03,0.03,0.05,0.05c0.43,0.42,0.88,0.81,1.35,1.2c0,0,0,0,0,0
			c0.3,0.25,0.61,0.5,0.93,0.74c0.41-0.12,1.26-0.19,3.03-0.14c-0.26-0.32-0.51-0.65-0.75-0.99c0.34,0.01,0.7,0.02,1.07,0.03
			c0.7,0.03,1.55,0.07,2.51,0.16c-0.94-3.3,7.43-2.23,20.23,0.95c0.09-0.09,0.07-0.18,0.16-0.27c2.14,0.7,3.75,1.36,4.6,1.91
			c0.1-0.06,0.32-0.12,0.42-0.19c-1.65-1.16-6.33-2.71-12.43-4.16C29.82,47.53,29.79,47.52,29.76,47.52z"/>
		<path class="st0" d="M27.26,52.91c-0.04-0.01-0.09-0.02-0.13-0.03c-1.27-0.31-2.61-0.61-4.01-0.89c-2-0.4-3.84-0.65-5.42-0.8
			c0,0-0.01-0.01-0.01-0.01c-2.54-0.26-4.62-0.3-5.77-0.27c0.04,0.03,0.09,0.06,0.13,0.09c0,0,0,0,0,0
			c0.08,0.05,0.16,0.11,0.24,0.16c0.09,0.06,0.18,0.12,0.28,0.19c0.1,0.07,0.2,0.13,0.31,0.2c0.1,0.06,0.19,0.12,0.29,0.18
			c0.1,0.06,0.21,0.13,0.31,0.19c0.08,0.05,0.15,0.09,0.23,0.14l-0.01,0c4.81,2.88,10.25,4.16,15.61,3.91
			c-3.06-0.05-6.12-0.61-9.04-1.67c-0.21-0.1-0.4-0.22-0.52-0.35c-1.57-1.94,2.72-1.3,10.88,0.59c0.16-0.06,0.21-0.14,0.37-0.21
			c0.98,0.31,1.78,0.61,2.36,0.87c0.17-0.03,0.46-0.08,0.63-0.12c-1.21-0.63-3.48-1.35-6.08-2.01
			C27.69,53.02,27.48,52.96,27.26,52.91z"/>
		<path class="st0" d="M28.55,24.92c-4.07-0.81-8.03-1.48-11.67-1.99c-2.79-0.4-5.4-0.7-7.72-0.89c-6.01-0.5-7.96-0.09-8.55,0.12
			c-0.03,0.13-0.06,0.26-0.08,0.39c-0.05,0.23-0.09,0.46-0.13,0.69c-0.01,0.07-0.02,0.14-0.04,0.21c-0.03,0.16-0.05,0.32-0.07,0.48
			c-0.01,0.08-0.02,0.16-0.03,0.24c-0.02,0.16-0.04,0.33-0.06,0.49c-0.01,0.07-0.02,0.14-0.03,0.21c-0.02,0.22-0.05,0.44-0.07,0.66
			c0,0.01,0,0.02,0,0.02c-0.02,0.24-0.04,0.48-0.05,0.71c0,0.04,0,0.07-0.01,0.11c-0.01,0.2-0.02,0.4-0.03,0.6
			c0,0.05-0.01,0.09-0.01,0.14c0,0.09-0.01,0.18-0.01,0.27c0,0,0,0,0,0C0,27.76,0,28.13,0,28.51c0.94-0.4,3.09-0.7,8.05-0.35
			c0.19,0.01,0.38,0.03,0.57,0.04c0.03-0.31,0.07-0.63,0.1-0.95c2.16,0.18,4.56,0.46,7.12,0.82c0.67-3.91,14.97-1.09,31.1,2.11
			c0.02-0.12,0.03-0.13,0.05-0.24c4.12,1.31,6.93,2.5,8.07,3.39c0.02-0.11,0.04-0.34,0.06-0.45c-2.03-1.5-7.46-3.36-14.06-5.09
			C37.27,26.78,33,25.8,28.55,24.92z"/>
		<path class="st0" d="M13.76,8.42c0.76,0.05,1.56,0.12,2.4,0.21c0.23-0.3,0.47-0.59,0.72-0.87c1.77,0.19,3.68,0.44,5.68,0.75
			c2.33-3.36,6.54-2.53,21.4,0.83c-0.08-0.15-0.17-0.19-0.25-0.34c3.71,1.12,5.97,2.11,6.63,2.74c-0.18-0.25-0.37-0.61-0.56-0.86
			c-1.57-0.94-4.78-2.02-8.62-3.05c-2.73-0.74-5.83-1.46-9.08-2.11c-5.05-1-9.85-1.7-13.51-1.96c-0.07-0.01-0.13-0.01-0.2-0.01
			c-2.01-0.14-3.47-0.14-4.29-0.02c-0.14,0.08-0.27,0.16-0.41,0.24c0,0-0.01,0-0.01,0c-0.05,0.03-0.1,0.06-0.15,0.09
			c0,0-0.01,0.01-0.01,0.01c-0.01,0-0.02,0.01-0.03,0.02c0,0,0,0,0,0c-0.01,0-0.01,0.01-0.02,0.01c-0.24,0.14-0.47,0.29-0.71,0.45
			c-0.02,0.01-0.04,0.03-0.06,0.04c-0.21,0.14-0.42,0.28-0.62,0.42C12,5.02,11.93,5.07,11.87,5.12c-0.16,0.12-0.32,0.23-0.48,0.35
			c-0.07,0.05-0.14,0.11-0.22,0.16c-0.15,0.11-0.3,0.23-0.45,0.34c-0.07,0.06-0.14,0.11-0.21,0.17c-0.15,0.12-0.3,0.24-0.45,0.37
			C10,6.55,9.94,6.61,9.87,6.66C9.71,6.8,9.55,6.93,9.4,7.07C9.35,7.12,9.3,7.16,9.25,7.2C9.22,7.23,9.18,7.26,9.14,7.3c0,0,0,0,0,0
			C8.77,7.64,8.4,8,8.03,8.36C9.22,8.23,11.01,8.22,13.76,8.42z"/>
		<path class="st0" d="M10.67,14.48c0.57,0.04,1.15,0.09,1.75,0.15c0.13-0.27,0.27-0.54,0.41-0.8c2.07,0.2,4.31,0.48,6.69,0.83
			c1.75-3.85,11.07-1.67,27.14,1.69c-0.03-0.13-0.06-0.15-0.09-0.28c3.68,1.13,6.38,2.21,7.56,3.07c-0.06-0.17-0.11-0.45-0.17-0.61
			c-2.21-1.37-7.52-3.15-14.39-4.83c-2.66-0.66-5.51-1.29-8.46-1.87c-4.22-0.84-8.3-1.51-11.94-1.97C13.04,9.05,8.82,8.93,7.2,9.25
			C7.15,9.3,7.1,9.36,7.05,9.42c0,0,0,0,0,0c-0.03,0.04-0.06,0.07-0.09,0.1C6.84,9.66,6.72,9.79,6.61,9.93
			c-0.05,0.06-0.1,0.11-0.14,0.17c-0.12,0.14-0.23,0.28-0.34,0.42c-0.04,0.05-0.09,0.11-0.13,0.16c-0.13,0.16-0.25,0.32-0.37,0.49
			c-0.03,0.03-0.05,0.07-0.08,0.11c-0.15,0.2-0.29,0.4-0.44,0.6c-0.04,0.05-0.07,0.11-0.11,0.16c-0.1,0.15-0.2,0.29-0.3,0.44
			c-0.06,0.09-0.12,0.17-0.17,0.26c-0.07,0.12-0.15,0.23-0.22,0.35c-0.06,0.1-0.13,0.2-0.19,0.3c-0.03,0.05-0.06,0.1-0.09,0.15
			c0,0,0,0,0,0c-0.21,0.35-0.42,0.71-0.62,1.08C4.61,14.34,6.78,14.2,10.67,14.48z"/>
		<path class="st0" d="M18.93,2.93C19.85,3,20.84,3.09,21.9,3.21c0.42-0.28,0.85-0.54,1.28-0.78c1.2,0.15,2.45,0.34,3.74,0.55
			c1.35-1.2,2.55-1.88,4.94-1.68c5.68,0.51,10.86,2.72,15.05,6.13C41.94,2.82,35.3,0,27.99,0c-1.34,0-2.64,0.1-3.92,0.29
			c-0.04,0.01-0.09,0.01-0.14,0.02c-0.22,0.03-0.45,0.07-0.67,0.1c-0.14,0.02-0.28,0.05-0.41,0.08c-0.21,0.04-0.42,0.08-0.63,0.12
			c-0.14,0.03-0.28,0.06-0.42,0.09c-0.21,0.05-0.41,0.1-0.62,0.15c-0.14,0.03-0.27,0.07-0.4,0.1c-0.22,0.06-0.43,0.12-0.65,0.18
			c-0.12,0.04-0.24,0.07-0.36,0.1C19.51,1.32,19.26,1.4,19,1.49c-0.07,0.02-0.14,0.04-0.21,0.07c-0.31,0.11-0.62,0.22-0.93,0.34
			c0,0,0,0,0.01,0c-0.72,0.28-1.42,0.58-2.1,0.92C16.58,2.81,17.61,2.84,18.93,2.93z"/>
		<path class="st0" d="M8.68,21.15c0.41,0.03,0.83,0.06,1.25,0.1c0.09-0.31,0.18-0.62,0.27-0.93c2.19,0.2,4.59,0.49,7.14,0.85
			c1.2-3.56,13.99-1.07,30.12,2.13c0-0.12-0.01-0.14-0.01-0.26c4.05,1.27,6.96,2.47,8.1,3.41c-0.01-0.14-0.02-0.4-0.03-0.54
			c-1.34-0.95-4.21-2.11-8.07-3.32c0,0,0,0,0,0c-4.82-1.51-10.99-3.04-17.58-4.34c-4.26-0.85-8.4-1.54-12.15-2.05
			c-0.23-0.03-0.45-0.06-0.68-0.09c0,0-0.01,0-0.02,0c-7.73-1.02-12.76-1.08-14.1-0.57c-0.04,0.08-0.07,0.15-0.11,0.23c0,0,0,0,0,0
			C2.76,15.85,2.73,15.93,2.7,16c-0.04,0.07-0.07,0.14-0.1,0.22c-0.06,0.13-0.12,0.26-0.18,0.39c-0.03,0.07-0.06,0.14-0.09,0.22
			c-0.06,0.13-0.11,0.26-0.17,0.4c-0.02,0.06-0.05,0.13-0.08,0.19c-0.11,0.27-0.22,0.54-0.32,0.81c-0.02,0.07-0.05,0.13-0.07,0.19
			c-0.04,0.12-0.08,0.23-0.12,0.35c-0.03,0.1-0.07,0.21-0.11,0.31c-0.04,0.11-0.07,0.22-0.11,0.33c-0.04,0.11-0.07,0.22-0.11,0.34
			c-0.03,0.11-0.06,0.21-0.1,0.32c-0.02,0.05-0.03,0.1-0.05,0.15c0,0,0,0,0,0C1,20.58,0.9,20.95,0.81,21.34
			C1.97,21.01,4.24,20.83,8.68,21.15z"/>
	</g>
	<g>
		<g>
			<path class="st1" d="M95.38,7.39l-4.26,23.56L79.37,7.39H57.75c2,5.13,3.09,10.68,3.09,16.49c0,10.85-3.81,20.84-10.21,28.76
				h20.39l4.41-22.65L87.1,52.64h18.15l8.28-45.25H95.38z"/>
			<path class="st1" d="M115.48,7.39h39.92l-2.69,14.7h-10.43l-5.62,30.54h-18.99l5.65-30.54h-10.53L115.48,7.39z"/>
			<path class="st1" d="M166.68,36.25l5.99-13.8l1.63,13.8H166.68z M161.32,47h14.34l0.7,5.64h20.1L186.09,7.39h-21l-26.43,45.25
				h20.1L161.32,47z"/>
		</g>
		<path class="st1" d="M198.87,12.93c-0.75,0.75-1.66,1.13-2.72,1.13c-1.06,0-1.97-0.38-2.72-1.13c-0.74-0.75-1.11-1.66-1.11-2.73
			c0-1.06,0.37-1.96,1.12-2.71c0.75-0.75,1.65-1.12,2.71-1.12c1.07,0,1.97,0.37,2.72,1.12c0.75,0.75,1.13,1.65,1.13,2.71
			C200,11.26,199.62,12.17,198.87,12.93z M193.81,7.87c-0.64,0.64-0.96,1.42-0.96,2.34c0,0.92,0.32,1.7,0.96,2.35
			c0.64,0.65,1.42,0.97,2.34,0.97c0.92,0,1.7-0.32,2.34-0.97c0.65-0.65,0.96-1.43,0.96-2.35c0-0.91-0.32-1.69-0.96-2.34
			c-0.65-0.65-1.43-0.97-2.34-0.97C195.23,6.89,194.45,7.22,193.81,7.87z M196.08,8.08c0.53,0,0.91,0.05,1.16,0.15
			c0.44,0.18,0.66,0.54,0.66,1.07c0,0.38-0.14,0.66-0.41,0.83c-0.15,0.09-0.35,0.16-0.61,0.2c0.33,0.05,0.57,0.19,0.72,0.42
			c0.15,0.22,0.23,0.44,0.23,0.65v0.31c0,0.1,0,0.2,0.01,0.32c0.01,0.11,0.02,0.18,0.04,0.22l0.03,0.05h-0.69
			c0-0.01-0.01-0.03-0.01-0.04c0-0.01-0.01-0.03-0.01-0.05l-0.02-0.14v-0.33c0-0.49-0.13-0.81-0.4-0.97
			c-0.16-0.09-0.44-0.14-0.84-0.14h-0.59v1.66h-0.74V8.08H196.08z M196.9,8.76c-0.19-0.1-0.49-0.15-0.91-0.15h-0.64v1.51h0.68
			c0.32,0,0.56-0.03,0.72-0.09c0.29-0.11,0.44-0.33,0.44-0.65C197.18,9.06,197.09,8.86,196.9,8.76z"/>
	</g>
</g>
</svg>
