<?xml version="1.0" encoding="utf-8"?>
<!-- Generator: Adobe Illustrator 23.1.0, SVG Export Plug-In . SVG Version: 6.00 Build 0)  -->
<svg version="1.1" id="Layer_1" xmlns="http://www.w3.org/2000/svg" xmlns:xlink="http://www.w3.org/1999/xlink" x="0px" y="0px"
	 viewBox="0 0 200 138" style="enable-background:new 0 0 200 138;" xml:space="preserve">
<style type="text/css">
	.st0{clip-path:url(#SVGID_2_);}
	.st1{fill:#FFDE9D;stroke:#FFDE9D;stroke-miterlimit:10;}
	.st2{fill:#EC2227;}
	.st3{fill:#01A64F;}
	.st4{fill:#231F20;}
</style>
<g>
	<defs>
		<rect id="SVGID_1_" width="200" height="138"/>
	</defs>
	<clipPath id="SVGID_2_">
		<use xlink:href="#SVGID_1_"  style="overflow:visible;"/>
	</clipPath>
	<g class="st0">
		<g>
			<path class="st1" d="M71.43,12.19c9.54-4.15,21.37-6.39,33.28-6.39c11.92,0,22.73,2.25,32.28,6.42
				c-17.92,0.55-32.28,15.24-32.28,33.29C104.71,27.12,89.81,12.22,71.43,12.19z"/>
			<path class="st2" d="M70.43,40c-3,0-5.44,2.43-5.44,5.44c0,3.01,2.43,5.44,5.44,5.44c3,0,5.44-2.43,5.44-5.44
				C75.87,42.43,73.43,40,70.43,40z"/>
			<path class="st3" d="M137.46,39.92c-3,0-5.44,2.43-5.44,5.44c0,3.01,2.44,5.44,5.44,5.44s5.43-2.43,5.43-5.44
				C142.89,42.35,140.46,39.92,137.46,39.92z"/>
			<g>
				<path d="M71.26,29.26c-8.93,0-16.17,7.24-16.17,16.18c0,8.94,7.24,16.17,16.17,16.17c8.93,0,16.18-7.24,16.18-16.17
					C87.44,36.5,80.2,29.26,71.26,29.26z M71.26,56.64c-6.19,0-11.21-5.02-11.21-11.21c0-6.19,5.02-11.21,11.21-11.21
					c6.19,0,11.21,5.02,11.21,11.21C82.47,51.62,77.45,56.64,71.26,56.64z M171.91,12.66h-22.27
					c-11.36-7.64-26.87-12.42-44.66-12.42c-17.8,0-34.37,4.77-45.73,12.42H38.03c3.46,4.05,6.02,9.52,6.66,13.29
					c-4,5.5-6.37,12.25-6.37,19.57c0,18.41,14.92,33.33,33.33,33.33c10.44,0,19.76-4.81,25.87-12.33c2.49,2.91,6.62,8.77,7.45,10.47
					c0,0,4.79-7.15,7.48-10.44c6.11,7.5,15.42,12.3,25.85,12.3c18.4,0,33.33-14.92,33.33-33.33c0-7.31-2.37-14.07-6.37-19.56
					C165.89,22.19,168.45,16.71,171.91,12.66z M71.65,72.34c-14.82,0-26.83-12.01-26.83-26.83c0-14.81,12.01-26.83,26.83-26.83
					S98.48,30.7,98.48,45.51C98.48,60.33,86.46,72.34,71.65,72.34z M71.7,12.19c9.54-4.15,21.37-6.39,33.28-6.39
					c11.93,0,22.73,2.25,32.28,6.42c-17.92,0.55-32.28,15.24-32.29,33.29C104.97,27.12,90.08,12.22,71.7,12.19z M138.3,72.34
					c-14.82,0-26.83-12.01-26.83-26.83c0-14.81,12.01-26.83,26.83-26.83c14.81,0,26.83,12.01,26.83,26.83
					C165.12,60.33,153.11,72.34,138.3,72.34z M138.29,29.18c-8.93,0-16.17,7.24-16.17,16.18c0,8.93,7.24,16.17,16.17,16.17
					c8.93,0,16.17-7.24,16.17-16.17C154.46,36.42,147.22,29.18,138.29,29.18z M138.29,56.57c-6.19,0-11.21-5.02-11.21-11.21
					c0-6.19,5.02-11.21,11.21-11.21s11.21,5.02,11.21,11.21C149.49,51.55,144.48,56.57,138.29,56.57z"/>
			</g>
		</g>
		<g>
			<g>
				<path class="st4" d="M13.7,109.65V106H7.74v-5.47l-4.58,1.36v4.1h-3.51v3.65h3.51v11.72c0,5.21,2.13,7.86,6.33,7.86
					c1.51,0,2.82-0.21,3.9-0.61l0.13-0.05l-0.21-3.6l-0.23,0.07c-0.61,0.18-1.42,0.27-2.39,0.27c-1.04,0-1.77-0.31-2.24-0.94
					c-0.47-0.65-0.71-1.75-0.71-3.25v-11.44H13.7z"/>
				<path class="st4" d="M29.51,105.58c-0.49-0.07-0.88-0.1-1.18-0.1c-1.41,0-2.72,0.46-3.92,1.36c-1,0.74-1.79,1.75-2.36,2.98
					L21.82,106h-4.16l0.01,0.2c0.12,1.83,0.18,4.22,0.18,7.1v15.42h4.67v-12c0-2.19,0.55-3.89,1.62-5.07
					c1.07-1.16,2.37-1.76,3.86-1.76c0.55,0,1.04,0.04,1.44,0.13l0.23,0.05v-4.46L29.51,105.58z"/>
				<g>
					<rect x="33.73" y="106" class="st4" width="4.67" height="22.72"/>
					<path class="st4" d="M36.05,102.31c0.88,0,1.6-0.29,2.14-0.84c0.54-0.56,0.82-1.25,0.82-2.07c0-0.8-0.28-1.49-0.83-2.04
						c-0.55-0.55-1.25-0.83-2.08-0.83c-0.86,0-1.58,0.28-2.13,0.83c-0.55,0.55-0.83,1.24-0.83,2.04c0,0.82,0.27,1.51,0.82,2.07
						C34.49,102.02,35.2,102.31,36.05,102.31z"/>
				</g>
				<path class="st4" d="M61.15,108.66c-1.82-2.17-4.13-3.28-6.88-3.28c-3.32,0-5.92,1.3-7.73,3.88l-0.19-3.37h-4.25l0.02,0.32
					c0.12,1.88,0.17,4.34,0.17,7.32v24.44h4.68v-11.63c0.65,0.85,1.48,1.53,2.47,2.04c1.24,0.63,2.63,0.95,4.12,0.95
					c2.93,0,5.41-1.13,7.36-3.37c1.95-2.23,2.94-5.25,2.94-8.98C63.87,113.62,62.95,110.82,61.15,108.66z M49.67,110.48
					c0.99-0.71,2.1-1.08,3.29-1.08c1.88,0,3.34,0.71,4.47,2.17c1.14,1.47,1.71,3.35,1.71,5.61c0,2.52-0.58,4.55-1.73,6.01
					c-1.15,1.47-2.66,2.18-4.63,2.18c-1.59,0-2.96-0.59-4.09-1.75c-1.13-1.16-1.7-2.61-1.7-4.32v-3.6c0-0.64,0.2-1.5,0.6-2.56
					C47.97,112.1,48.67,111.21,49.67,110.48z"/>
				<path class="st3" d="M84.76,128.49c-0.24-1.33-0.37-3.12-0.37-5.32V115c0-3.05-0.77-5.42-2.28-7.05
					c-1.52-1.64-3.78-2.46-6.73-2.46c-3.01,0-5.63,0.69-7.81,2.06l-0.13,0.07l1.1,3.18l0.2-0.13c1.75-1.11,3.76-1.68,5.99-1.68
					c1.65,0,2.9,0.43,3.73,1.27c0.83,0.84,1.25,2.04,1.25,3.57v0.23c-4.45,0.02-7.89,0.75-10.23,2.17c-2.4,1.46-3.62,3.6-3.62,6.37
					c0,1.81,0.66,3.38,1.97,4.66c1.31,1.29,3.07,1.94,5.23,1.94c2.93,0,5.26-1.05,6.95-3.11l0.46,2.6h4.31L84.76,128.49z
					 M78.21,124.2c-1.06,0.97-2.41,1.47-3.98,1.47c-1.1,0-1.99-0.32-2.65-0.96c-0.66-0.63-0.99-1.52-0.99-2.65
					c0-1.44,0.66-2.56,2.01-3.39c1.34-0.83,3.76-1.25,7.21-1.27v3.51C79.81,122.13,79.28,123.23,78.21,124.2z"/>
				<path class="st3" d="M108.41,128.82l-0.03-0.32c-0.11-1.41-0.17-3.37-0.17-5.84V95.36h-4.68v12.81
					c-0.62-0.74-1.39-1.35-2.31-1.83c-1.22-0.64-2.61-0.96-4.14-0.96c-2.87,0-5.31,1.16-7.26,3.46c-1.93,2.28-2.91,5.28-2.91,8.89
					c0,3.33,0.93,6.13,2.77,8.3c1.85,2.19,4.19,3.3,6.96,3.3c1.72,0,3.27-0.41,4.63-1.22c1.08-0.64,1.96-1.5,2.65-2.56l0.25,3.26
					H108.41z M103.52,115.37v3.55c0,1.92-0.58,3.48-1.74,4.63c-1.16,1.14-2.49,1.72-3.97,1.72c-1.96,0-3.45-0.71-4.54-2.19
					c-1.09-1.48-1.65-3.37-1.65-5.64c0-2.41,0.59-4.39,1.75-5.89c1.16-1.49,2.64-2.21,4.53-2.21c1.53,0,2.86,0.55,3.96,1.65
					C102.97,112.1,103.52,113.57,103.52,115.37z"/>
				<path class="st3" d="M127.58,106c0,0-5.83,11.9-6.25,13.24c-0.53-1.61-6.32-13.24-6.32-13.24h-5.07l11.41,22.72L132.56,106
					H127.58z"/>
				<g>
					<rect x="134.82" y="106" class="st3" width="4.67" height="22.72"/>
					<path class="st3" d="M137.14,102.31c0.88,0,1.6-0.29,2.14-0.84c0.54-0.56,0.81-1.25,0.81-2.07c0-0.8-0.28-1.49-0.83-2.04
						c-0.55-0.55-1.25-0.83-2.09-0.83c-0.86,0-1.58,0.28-2.13,0.83c-0.55,0.55-0.83,1.24-0.83,2.04c0,0.82,0.27,1.51,0.81,2.07
						C135.58,102.02,136.29,102.31,137.14,102.31z"/>
				</g>
				<path class="st3" d="M157.92,118.16c-0.95-1.07-2.54-2-4.72-2.79c-1.74-0.62-2.89-1.19-3.43-1.71
					c-0.53-0.51-0.78-1.11-0.78-1.85c0-0.83,0.3-1.49,0.92-2.02c0.63-0.52,1.49-0.8,2.58-0.8c1.61,0,3.19,0.44,4.71,1.31l0.2,0.12
					l1.19-3.46l-0.13-0.08c-1.59-0.94-3.55-1.41-5.82-1.41c-2.45,0-4.45,0.66-5.93,1.96c-1.49,1.31-2.24,2.95-2.24,4.88
					c0,2.89,2.11,5.08,6.27,6.5c1.52,0.52,2.6,1.06,3.2,1.63c0.59,0.57,0.87,1.27,0.87,2.17c0,0.93-0.34,1.65-1.06,2.2
					c-0.71,0.55-1.76,0.84-3.09,0.84c-1.89,0-3.75-0.55-5.53-1.64l-0.21-0.13l-1.13,3.65l0.14,0.07c1.94,1.05,4.18,1.59,6.65,1.59
					c2.69,0,4.86-0.64,6.43-1.91c1.59-1.28,2.39-2.98,2.39-5.06C159.37,120.62,158.88,119.25,157.92,118.16z"/>
				<path class="st3" d="M180.79,108.74c-2-2.16-4.64-3.26-7.84-3.26c-3.21,0-5.91,1.11-8.02,3.28c-2.11,2.17-3.18,5.12-3.18,8.78
					c0,3.43,1.04,6.26,3.08,8.42c2.04,2.16,4.67,3.26,7.81,3.26c2.01,0,3.91-0.5,5.64-1.48c1.74-0.98,3.1-2.4,4.06-4.23
					c0.96-1.82,1.45-3.96,1.45-6.39C183.8,113.72,182.79,110.9,180.79,108.74z M172.65,125.66c-1.8,0-3.32-0.78-4.52-2.32
					c-1.21-1.55-1.82-3.55-1.82-5.94c0-2.39,0.59-4.41,1.75-6c1.15-1.56,2.74-2.36,4.73-2.36c1.96,0,3.53,0.8,4.66,2.38
					c1.15,1.6,1.73,3.57,1.73,5.84c0,2.47-0.63,4.51-1.88,6.06C176.06,124.87,174.5,125.66,172.65,125.66z"/>
				<path class="st3" d="M199.48,105.58c-0.49-0.07-0.88-0.1-1.18-0.1c-1.4,0-2.72,0.46-3.92,1.36c-0.99,0.74-1.79,1.75-2.36,2.98
					l-0.24-3.83h-4.16l0.01,0.2c0.12,1.83,0.18,4.22,0.18,7.1v15.42h4.67v-12c0-2.19,0.55-3.89,1.62-5.07
					c1.07-1.16,2.37-1.76,3.86-1.76c0.55,0,1.04,0.04,1.44,0.13l0.23,0.05v-4.46L199.48,105.58z"/>
			</g>
		</g>
	</g>
</g>
</svg>
