<?xml version="1.0" encoding="utf-8"?>
<!-- Generator: Adobe Illustrator 23.1.0, SVG Export Plug-In . SVG Version: 6.00 Build 0)  -->
<svg version="1.1" id="Layer_1" xmlns="http://www.w3.org/2000/svg" xmlns:xlink="http://www.w3.org/1999/xlink" x="0px" y="0px"
	 viewBox="0 0 20 13" style="enable-background:new 0 0 20 13;" xml:space="preserve">
<style type="text/css">
	.st0{fill:#0066B2;}
	.st1{fill:#E6E7E8;}
	.st2{fill:#E6E6E6;}
	.st3{fill:#DA2128;}
</style>
<g>
	<path class="st0" d="M3.89,1V0H0.93H0.06c0,0,2.56,1.38,3.84,2.06V1z"/>
	<path class="st0" d="M19.07,0H5.47v1v1.14l3.9-2.12c0,0.06,0,0.16-0.01,0.25l0,0c0.01,0.04,0,0.09,0,0.13V0.7v0.48l-2.1,1.13h2.1
		V2.5v1.08v0.19H7.09L9.36,5v0.2v0.41v0.25H8.94l-3.47-1.8v1.8H5.27H4.64H4.1H3.89V4.11L0.63,5.86H0.19H0h0V5.53l0,0V5.11l2.46-1.33
		H0V3.58h0V2.5h0V2.31h2.1L0,1.22V0.86l0,0v0v11.27V13h0.93h18.14H20v-0.86V0.86V0H19.07z M14.84,2.14l0.43,0.12l0.17-0.39
		l0.17,0.39l0.43-0.12L15.82,2.5l0.38,0.24l-0.45,0.06l0.03,0.42l-0.33-0.29l-0.33,0.29l0.03-0.42l-0.45-0.06l0.37-0.24L14.84,2.14z
		 M12.86,6.47l-0.34-0.29l-0.34,0.29l0.03-0.43l-0.46-0.07l0.38-0.24L11.9,5.35l0.45,0.13l0.17-0.4l0.17,0.4l0.45-0.13L12.9,5.73
		l0.38,0.24l-0.46,0.07L12.86,6.47z M15.74,11.12l-0.34-0.29l-0.34,0.29l0.03-0.43l-0.46-0.07l0.38-0.24l-0.23-0.37l0.44,0.13
		l0.17-0.4l0.17,0.4l0.45-0.13l-0.23,0.37l0.38,0.24l-0.46,0.07L15.74,11.12z M16.66,7.57l-0.23-0.2l-0.23,0.2l0.02-0.29l-0.31-0.04
		l0.26-0.16l-0.16-0.25l0.3,0.09l0.11-0.27l0.12,0.27l0.3-0.09l-0.16,0.25l0.26,0.16l-0.31,0.04L16.66,7.57z M18.2,5.93l-0.34-0.29
		l-0.34,0.29l0.03-0.43L17.1,5.44l0.38-0.24l-0.23-0.37l0.44,0.13l0.17-0.4l0.17,0.4l0.44-0.13L18.24,5.2l0.38,0.24L18.17,5.5
		L18.2,5.93z"/>
	<polygon class="st0" points="0,0 0,0.41 0,0.41 	"/>
	<polygon class="st1" points="18.24,5.2 18.47,4.82 18.03,4.95 17.86,4.55 17.69,4.95 17.25,4.82 17.48,5.2 17.1,5.44 17.55,5.5 
		17.52,5.93 17.86,5.64 18.2,5.93 18.17,5.5 18.62,5.44 	"/>
	<polygon class="st1" points="15.14,2.81 15.11,3.23 15.44,2.94 15.78,3.23 15.74,2.81 16.19,2.74 15.82,2.5 16.05,2.14 15.61,2.26 
		15.44,1.87 15.28,2.26 14.84,2.14 15.07,2.5 14.69,2.74 	"/>
	<polygon class="st1" points="16.69,7.07 16.85,6.82 16.55,6.9 16.43,6.63 16.32,6.9 16.02,6.82 16.17,7.07 15.92,7.24 16.23,7.28 
		16.2,7.57 16.43,7.37 16.66,7.57 16.64,7.28 16.95,7.24 	"/>
	<polygon class="st1" points="15.78,10.38 16.01,10.01 15.57,10.14 15.4,9.73 15.23,10.14 14.78,10.01 15.01,10.38 14.63,10.63 
		15.09,10.69 15.05,11.12 15.4,10.83 15.74,11.12 15.7,10.69 16.16,10.63 	"/>
	<polygon class="st1" points="12.9,5.73 13.13,5.35 12.69,5.48 12.52,5.07 12.35,5.48 11.9,5.35 12.13,5.73 11.75,5.97 12.21,6.04 
		12.17,6.47 12.52,6.17 12.86,6.47 12.83,6.04 13.29,5.97 	"/>
	<path class="st2" d="M3.39,2.27H2.61L0,0.86v0.35l2.1,1.09H0V2.5h4.1V1V0H3.89v1v1.06C2.61,1.38,0.06,0,0.06,0H0v0.41
		C0.05,0.44,2.27,1.65,3.39,2.27z"/>
	<polygon class="st2" points="0,3.58 0,3.78 2.46,3.78 0,5.11 0,5.53 3.12,3.85 3.9,3.85 0.19,5.86 0.63,5.86 3.89,4.11 3.89,5.86 
		4.1,5.86 4.1,3.58 	"/>
	<path class="st2" d="M5.27,2.5h4.1V2.31h-2.1l2.1-1.13V0.7l-3,1.61H5.58l3.78-2.04c0-0.09,0.01-0.19,0.01-0.25l-3.9,2.12V1V0H5.27
		v1V2.5z"/>
	<polygon class="st2" points="5.27,5.86 5.47,5.86 5.47,4.06 8.94,5.86 9.36,5.86 9.36,5.61 6.02,3.79 6.09,3.79 6.74,3.79 
		9.36,5.2 9.36,5 7.09,3.78 9.36,3.78 9.36,3.58 5.27,3.58 	"/>
	<path class="st3" d="M2.61,2.27h0.78C2.27,1.65,0.05,0.44,0,0.41l0,0c0,0,0,0,0,0l0,0.45l0,0L2.61,2.27z"/>
	<polygon class="st3" points="3.12,3.85 0,5.53 0,5.53 0,5.86 0,5.86 0.19,5.86 3.9,3.85 	"/>
	<polygon class="st3" points="6.09,3.79 6.02,3.79 9.36,5.61 9.36,5.2 6.74,3.79 	"/>
	<path class="st3" d="M6.36,2.31l3-1.61V0.4c0-0.04,0.01-0.1,0-0.13l0,0L5.58,2.31H6.36z"/>
	<polygon class="st3" points="4.1,2.5 0,2.5 0,2.5 0,3.58 0,3.58 4.1,3.58 4.1,5.86 4.64,5.86 5.27,5.86 5.27,3.58 9.36,3.58 
		9.36,2.5 5.27,2.5 5.27,1 5.27,0 4.1,0 4.1,1 	"/>
</g>
</svg>
