<?xml version="1.0" encoding="utf-8"?>
<!-- Generator: Adobe Illustrator 23.1.0, SVG Export Plug-In . SVG Version: 6.00 Build 0)  -->
<svg version="1.1" id="Layer_1" xmlns="http://www.w3.org/2000/svg" xmlns:xlink="http://www.w3.org/1999/xlink" x="0px" y="0px"
	 viewBox="0 0 20 13" style="enable-background:new 0 0 20 13;" xml:space="preserve">
<style type="text/css">
	.st0{fill:#2E4593;}
	.st1{fill:#FCF5FF;}
	.st2{fill:#F42525;}
	.st3{fill:#FFFFFF;}
</style>
<g>
	<polygon class="st0" points="0.02,1.38 0.02,4.59 4.96,4.59 	"/>
	<polygon class="st0" points="19.99,11.64 19.99,8.14 14.6,8.14 	"/>
	<polygon class="st0" points="11.78,4.26 18.3,0.03 11.77,0.03 11.77,4.26 	"/>
	<polygon class="st0" points="0.02,8.14 0.02,11.9 5.8,8.14 	"/>
	<polygon class="st0" points="2.49,12.99 8.34,12.99 8.34,9.2 	"/>
	<polygon class="st0" points="19.99,4.59 19.99,1.63 15.44,4.59 	"/>
	<polygon class="st0" points="8.34,0.03 2.1,0.03 8.34,4.08 	"/>
	<polygon class="st0" points="11.77,9.01 11.77,12.99 17.91,12.99 11.78,9.01 	"/>
	<polygon class="st1" points="12.58,8.14 19.99,12.95 19.99,11.64 14.6,8.14 	"/>
	<polygon class="st1" points="8.34,4.59 8.34,4.08 2.1,0.03 0.07,0.03 7.1,4.59 	"/>
	<polygon class="st1" points="5.72,4.59 0.02,0.89 0.02,1.38 4.96,4.59 	"/>
	<polygon class="st1" points="11.77,8.52 11.77,9.01 11.78,9.01 17.91,12.99 18.66,12.99 11.78,8.53 	"/>
	<polygon class="st2" points="7.1,4.59 0.07,0.03 0.03,0 0.02,0 0.02,0.03 0.02,0.89 5.72,4.59 	"/>
	<polygon class="st2" points="11.77,8.14 11.77,8.52 11.78,8.53 18.66,12.99 20,13 19.99,12.95 19.99,12.95 12.58,8.14 	"/>
	<polygon class="st1" points="13.41,4.59 15.44,4.59 19.99,1.63 19.99,0.31 19.94,0.35 	"/>
	<polygon class="st1" points="5.8,8.14 0.02,11.9 0.02,12.39 6.55,8.14 	"/>
	<polygon class="st1" points="8.34,8.14 7.93,8.14 0.47,12.99 2.49,12.99 8.34,9.2 	"/>
	<polygon class="st1" points="11.77,4.26 11.77,4.59 12.03,4.59 19.05,0.03 18.3,0.03 11.78,4.26 	"/>
	<polygon class="st2" points="13.41,4.59 19.94,0.35 19.99,0.31 19.99,0.31 19.99,0.03 19.83,0.03 19.74,0.03 19.05,0.03 
		12.03,4.59 	"/>
	<polygon class="st2" points="6.55,8.14 0.02,12.39 0.02,12.99 0.47,12.99 7.93,8.14 	"/>
	<polygon class="st3" points="19.99,4.59 15.44,4.59 13.41,4.59 12.03,4.59 11.77,4.59 11.77,4.26 11.77,0.03 11.17,0.03 
		11.17,5.22 20,5.22 20,4.59 	"/>
	<polygon class="st3" points="8.94,0.03 8.34,0.03 8.34,4.08 8.34,4.59 7.1,4.59 5.72,4.59 4.96,4.59 0.02,4.59 0,4.59 0,5.22 
		8.94,5.22 	"/>
	<polygon class="st3" points="11.17,12.99 11.77,12.99 11.77,9.01 11.77,8.52 11.77,8.14 12.58,8.14 14.6,8.14 19.99,8.14 20,8.14 
		20,7.51 11.17,7.51 	"/>
	<polygon class="st2" points="11.17,0.03 11.17,0.03 8.96,0.03 8.94,0.03 8.94,5.22 0,5.22 0,7.51 8.94,7.51 8.94,12.99 8.96,12.99 
		11.17,12.99 11.17,12.99 11.17,7.51 20,7.51 20,5.22 11.17,5.22 	"/>
	<polygon class="st3" points="0,7.51 0,8.14 0.02,8.14 5.8,8.14 6.55,8.14 7.93,8.14 8.34,8.14 8.34,9.2 8.34,12.99 8.94,12.99 
		8.94,7.51 	"/>
</g>
</svg>
