<?xml version="1.0" encoding="utf-8"?>
<!-- Generator: Adobe Illustrator 23.1.0, SVG Export Plug-In . SVG Version: 6.00 Build 0)  -->
<svg version="1.1" id="Layer_1" xmlns="http://www.w3.org/2000/svg" xmlns:xlink="http://www.w3.org/1999/xlink" x="0px" y="0px"
	 viewBox="0 0 20 13" style="enable-background:new 0 0 20 13;" xml:space="preserve">
<style type="text/css">
	.st0{fill:#DB2E2E;}
	.st1{fill:#FFFFFF;}
	.st2{fill:#2E4593;}
</style>
<g>
	<rect x="7.48" y="4" class="st0" width="12.52" height="1"/>
	<rect x="7.48" y="2" class="st0" width="12.52" height="1"/>
	<polygon class="st0" points="0,0 0,0.03 7.48,0.03 7.48,1 20,1 20,0 	"/>
	<polygon class="st0" points="7.48,6.09 0,6.09 0,7 20,7 20,6 7.48,6 	"/>
	<rect y="8" class="st0" width="20" height="1"/>
	<rect y="10" class="st0" width="20" height="1"/>
	<rect y="12" class="st0" width="20" height="1"/>
	<polygon class="st1" points="7.48,4 20,4 20,4 20,3 20,3 7.48,3 	"/>
	<polygon class="st1" points="7.48,2 20,2 20,2 20,1 20,1 7.48,1 	"/>
	<polygon class="st1" points="7.48,6 20,6 20,6 20,5 20,5 7.48,5 	"/>
	<polygon class="st1" points="0,7 0,8 0,8 20,8 20,8 20,7 20,7 0,7 	"/>
	<polygon class="st1" points="0,9 0,10 0,10 20,10 20,10 20,9 20,9 0,9 	"/>
	<polygon class="st1" points="0,11 0,12 0,12 20,12 20,12 20,11 20,11 0,11 	"/>
	<path class="st2" d="M7.48,6V5V4V3V2V1V0.03H0V1v0v1v0v1v0v1v0v1v0v1v0v0.08h7.48V6z M6.07,1.1l0.06-0.24L6.21,1.1h0h0.24
		l-0.2,0.14h0l0,0l0.08,0.23L6.14,1.32l0,0l0,0L5.95,1.47l0.08-0.23l0,0h0L5.84,1.1H6.07z M6.07,2.32l0.06-0.24l0.07,0.24v0l0,0
		h0.24l-0.2,0.14h0l0,0l0.08,0.23L6.14,2.55l0,0l0,0L5.95,2.69l0.08-0.23l0,0h0L5.84,2.32H6.07z M6.07,3.54l0.06-0.24l0.07,0.24h0
		h0.24l-0.2,0.14h0l0,0l0.08,0.23L6.14,3.77l0,0l0,0L5.95,3.92l0.08-0.23l0,0h0L5.84,3.54H6.07z M3.6,1.1l0.06-0.24L3.73,1.1h0h0.24
		l-0.2,0.14h0l0,0l0.08,0.23L3.67,1.32l0,0v0L3.48,1.47l0.08-0.23l0,0h0L3.36,1.1H3.6z M3.6,2.32l0.06-0.24l0.07,0.24l0,0l0,0h0.24
		l-0.2,0.14h0l0,0l0.08,0.23L3.67,2.55l0,0v0L3.48,2.69l0.08-0.23l0,0h0L3.36,2.32H3.6z M3.6,3.54l0.06-0.24l0.07,0.24h0h0.24
		l-0.2,0.14h0l0,0l0.08,0.23L3.67,3.77l0,0v0L3.48,3.92l0.08-0.23l0,0h0L3.36,3.54H3.6z M2.38,1.1l0.06-0.24L2.52,1.1h0.24
		L2.56,1.23h0l0,0l0.08,0.23L2.45,1.32L2.26,1.47l0.08-0.23l0,0h0L2.14,1.1H2.38z M2.38,2.32l0.06-0.24l0.07,0.24h0.24L2.56,2.46h0
		l0,0l0.08,0.23L2.45,2.55L2.26,2.69l0.08-0.23l0,0h0L2.14,2.32H2.38z M2.38,3.54l0.06-0.24l0.07,0.24h0.24L2.56,3.68h0l0,0
		l0.08,0.23L2.45,3.77L2.26,3.92l0.08-0.23l0,0h0L2.14,3.54H2.38z M1.16,1.1l0.06-0.24L1.3,1.1h0.24l-0.2,0.14h0l0,0l0.08,0.23
		L1.23,1.32l0,0v0L1.04,1.47l0.08-0.23l0,0h0L0.93,1.1H1.16z M1.16,2.32l0.06-0.24L1.3,2.32h0.24l-0.2,0.14h0l0,0l0.08,0.23
		L1.23,2.55l0,0v0L1.04,2.69l0.08-0.23l0,0h0l-0.2-0.14H1.16z M1.16,3.54l0.06-0.24L1.3,3.54h0.24l-0.2,0.14h0l0,0l0.08,0.23
		L1.23,3.77l0,0v0L1.04,3.92l0.08-0.23l0,0h0l-0.2-0.14H1.16z M0.72,5.52L0.8,5.75L0.61,5.61l0,0v0L0.42,5.75L0.5,5.52l0,0h0
		l-0.2-0.14h0.23l0.06-0.24l0.07,0.24h0.24L0.72,5.52L0.72,5.52L0.72,5.52z M0.72,4.29L0.72,4.29L0.72,4.29L0.8,4.53L0.61,4.38l0,0
		v0L0.42,4.53L0.5,4.29l0,0h0l-0.2-0.14l0.23,0l0.06-0.24l0.07,0.23v0l0.24,0L0.72,4.29z M0.72,3.07L0.72,3.07L0.72,3.07L0.8,3.3
		L0.61,3.16h0L0.42,3.3L0.5,3.07l0,0h0l-0.2-0.14h0.23l0.06-0.24l0.07,0.24h0.24L0.72,3.07z M0.72,1.84L0.72,1.84L0.72,1.84
		L0.8,2.08L0.61,1.93l0,0v0L0.42,2.08L0.5,1.85l0,0h0l-0.2-0.14h0.23l0.06-0.24l0.07,0.24h0.24L0.72,1.84z M0.72,0.63L0.72,0.63
		L0.72,0.63L0.8,0.86L0.61,0.72l0,0v0L0.42,0.86L0.5,0.63l0,0h0l-0.2-0.14h0.23l0.06-0.24l0.07,0.24h0.24L0.72,0.63z M1.23,4.99
		L1.23,4.99L1.23,4.99L1.04,5.14L1.12,4.9l0,0h0l-0.2-0.14h0.23l0.06-0.24L1.3,4.76h0.24L1.34,4.9h0l0,0l0.08,0.23L1.23,4.99z
		 M1.95,5.52l0.08,0.23L1.84,5.61l0,0l0,0L1.65,5.75l0.08-0.23l0,0h0L1.53,5.38h0.23l0.06-0.24L1.9,5.38v0l0,0h0.24L1.95,5.52
		L1.95,5.52L1.95,5.52z M1.95,4.29L1.95,4.29L1.95,4.29l0.08,0.24L1.84,4.38l0,0l0,0L1.65,4.53l0.08-0.23l0,0h0L1.53,4.15l0.23,0
		l0.06-0.24L1.9,4.15v0h0l0.24,0L1.95,4.29z M1.95,3.07L1.95,3.07L1.95,3.07L2.03,3.3L1.84,3.16h0h0L1.65,3.3l0.08-0.23l0,0h0
		L1.53,2.93h0.23l0.06-0.24L1.9,2.93h0h0.24L1.95,3.07z M1.95,1.84L1.95,1.84L1.95,1.84l0.08,0.24L1.84,1.93l0,0l0,0L1.65,2.08
		l0.08-0.23l0,0h0L1.53,1.71h0.23l0.06-0.24L1.9,1.71v0l0,0h0.24L1.95,1.84z M1.95,0.63L1.95,0.63L1.95,0.63l0.08,0.24L1.84,0.72
		l0,0l0,0L1.65,0.86l0.08-0.23l0,0h0L1.53,0.49h0.23l0.06-0.24L1.9,0.49v0l0,0h0.24L1.95,0.63z M2.45,4.99L2.26,5.14L2.34,4.9l0,0h0
		L2.14,4.76h0.23l0.06-0.24l0.07,0.24h0.24L2.56,4.9h0l0,0l0.08,0.23L2.45,4.99z M3.15,5.52l0.08,0.23L3.04,5.61l0,0v0L2.85,5.75
		l0.08-0.23l0,0h0L2.74,5.38h0.23l0.06-0.24l0.07,0.24h0.24L3.15,5.52L3.15,5.52L3.15,5.52z M3.15,4.29L3.15,4.29L3.15,4.29
		l0.08,0.24L3.04,4.38l0,0v0L2.85,4.53l0.08-0.23l0,0h0L2.74,4.15l0.23,0l0.06-0.24l0.07,0.23v0l0.24,0L3.15,4.29z M3.15,3.07
		L3.15,3.07L3.15,3.07L3.23,3.3L3.04,3.16h0L2.85,3.3l0.08-0.23l0,0h0L2.74,2.93h0.23l0.06-0.24l0.07,0.24h0.24L3.15,3.07z
		 M3.15,1.84L3.15,1.84L3.15,1.84l0.08,0.24L3.04,1.93l0,0v0L2.85,2.08l0.08-0.23l0,0h0L2.74,1.71h0.23l0.06-0.24l0.07,0.24h0.24
		L3.15,1.84z M3.15,0.63L3.15,0.63L3.15,0.63l0.08,0.24L3.04,0.72l0,0v0L2.85,0.86l0.08-0.23l0,0h0L2.74,0.49h0.23l0.06-0.24
		l0.07,0.24h0.24L3.15,0.63z M3.67,4.99L3.67,4.99L3.67,4.99L3.48,5.14L3.55,4.9l0,0h0L3.36,4.76H3.6l0.06-0.24l0.07,0.24l0,0l0,0
		h0.24L3.77,4.9h0l0,0l0.08,0.23L3.67,4.99z M4.38,5.52l0.08,0.23L4.27,5.61l0,0v0L4.08,5.75l0.08-0.23l0,0h0L3.97,5.38H4.2
		l0.06-0.24l0.07,0.24v0l0,0h0.24L4.38,5.52L4.38,5.52L4.38,5.52z M4.38,4.29L4.38,4.29L4.38,4.29l0.08,0.24L4.27,4.38l0,0v0
		L4.08,4.53l0.08-0.23l0,0h0L3.97,4.15l0.23,0l0.06-0.24l0.07,0.23v0h0l0.24,0L4.38,4.29z M4.38,3.07L4.38,3.07L4.38,3.07L4.46,3.3
		L4.27,3.16h0L4.08,3.3l0.08-0.23l0,0h0L3.97,2.93H4.2l0.06-0.24l0.07,0.24h0h0.24L4.38,3.07z M4.38,1.84L4.38,1.84L4.38,1.84
		l0.08,0.24L4.27,1.93l0,0v0L4.08,2.08l0.08-0.23l0,0h0L3.97,1.71H4.2l0.06-0.24l0.07,0.24v0l0,0h0.24L4.38,1.84z M4.38,0.63
		L4.38,0.63L4.38,0.63l0.08,0.24L4.27,0.72l0,0v0L4.08,0.86l0.08-0.23l0,0h0L3.97,0.49H4.2l0.06-0.24l0.07,0.24v0l0,0h0.24
		L4.38,0.63z M5.01,4.9l0.08,0.23L4.9,4.99l0,0l0,0L4.71,5.14L4.79,4.9l0,0h0L4.6,4.76h0.23L4.9,4.53l0.07,0.24l0,0l0,0h0.24
		L5.01,4.9L5.01,4.9L5.01,4.9z M5.01,3.68L5.01,3.68L5.01,3.68l0.08,0.24L4.9,3.77l0,0l0,0L4.71,3.92l0.08-0.23l0,0h0L4.6,3.54h0.23
		L4.9,3.31l0.07,0.24h0h0.24L5.01,3.68z M5.01,2.46L5.01,2.46L5.01,2.46l0.08,0.23L4.9,2.55l0,0l0,0L4.71,2.69l0.08-0.23l0,0h0
		L4.6,2.32h0.23L4.9,2.08l0.07,0.24l0,0l0,0h0.24L5.01,2.46z M5.01,1.23L5.01,1.23L5.01,1.23l0.08,0.24L4.9,1.32l0,0l0,0L4.71,1.47
		l0.08-0.23l0,0h0L4.6,1.1h0.23L4.9,0.86L4.97,1.1h0h0.24L5.01,1.23z M5.64,5.52l0.08,0.23L5.53,5.61L5.34,5.75l0.08-0.23l0,0h0
		L5.23,5.38h0.23l0.06-0.24L5.6,5.38v0l0,0h0.24L5.64,5.52L5.64,5.52L5.64,5.52z M5.64,4.29L5.64,4.29L5.64,4.29l0.08,0.24
		L5.53,4.38L5.34,4.53l0.08-0.23l0,0h0L5.23,4.15l0.23,0l0.06-0.24L5.6,4.15v0h0l0.24,0L5.64,4.29z M5.64,3.07L5.64,3.07L5.64,3.07
		L5.72,3.3L5.53,3.16L5.34,3.3l0.08-0.23l0,0h0L5.23,2.93h0.23l0.06-0.24L5.6,2.93h0h0.24L5.64,3.07z M5.64,1.84L5.64,1.84
		L5.64,1.84l0.08,0.24L5.53,1.93L5.34,2.08l0.08-0.23l0,0h0L5.23,1.71h0.23l0.06-0.24L5.6,1.71v0l0,0h0.24L5.64,1.84z M5.64,0.63
		L5.64,0.63L5.64,0.63l0.08,0.24L5.53,0.72L5.34,0.86l0.08-0.23l0,0h0L5.23,0.49h0.23l0.06-0.24L5.6,0.49v0l0,0h0.24L5.64,0.63z
		 M6.14,4.99L6.14,4.99L6.14,4.99L5.95,5.14L6.03,4.9l0,0h0L5.84,4.76h0.23l0.06-0.24l0.07,0.24v0l0,0h0.24L6.25,4.9h0l0,0
		l0.08,0.23L6.14,4.99z M6.85,5.52l0.08,0.23L6.74,5.61L6.55,5.75l0.08-0.23l0,0h0L6.44,5.38h0.23l0.06-0.24l0.07,0.24v0l0,0h0.24
		L6.85,5.52L6.85,5.52L6.85,5.52z M6.85,4.29L6.85,4.29L6.85,4.29l0.08,0.24L6.74,4.38L6.55,4.53l0.08-0.23l0,0h0L6.44,4.15l0.23,0
		l0.06-0.24l0.07,0.23v0h0l0.24,0L6.85,4.29z M6.85,3.07L6.85,3.07L6.85,3.07L6.93,3.3L6.74,3.16L6.55,3.3l0.08-0.23l0,0h0
		L6.44,2.93h0.23l0.06-0.24l0.07,0.24h0h0.24L6.85,3.07z M6.85,1.84L6.85,1.84L6.85,1.84l0.08,0.24L6.74,1.93L6.55,2.08l0.08-0.23
		l0,0h0L6.44,1.71h0.23l0.06-0.24l0.07,0.24v0l0,0h0.24L6.85,1.84z M6.85,0.63L6.85,0.63L6.85,0.63l0.08,0.24L6.74,0.72L6.55,0.86
		l0.08-0.23l0,0h0L6.44,0.49h0.23l0.06-0.24l0.07,0.24v0l0,0h0.24L6.85,0.63z"/>
	<polygon class="st1" points="6.03,1.23 6.03,1.23 5.95,1.47 6.14,1.32 6.14,1.32 6.14,1.32 6.33,1.47 6.25,1.23 6.25,1.23 
		6.25,1.23 6.44,1.1 6.21,1.1 6.21,1.1 6.13,0.86 6.07,1.1 5.84,1.1 6.03,1.23 	"/>
	<polygon class="st1" points="6.03,2.46 6.03,2.46 5.95,2.69 6.14,2.55 6.14,2.54 6.14,2.55 6.33,2.69 6.25,2.46 6.25,2.46 
		6.25,2.46 6.44,2.32 6.21,2.32 6.21,2.32 6.21,2.32 6.13,2.08 6.07,2.32 5.84,2.32 6.03,2.46 	"/>
	<polygon class="st1" points="6.03,3.68 6.03,3.68 5.95,3.92 6.14,3.77 6.14,3.77 6.14,3.77 6.33,3.92 6.25,3.68 6.25,3.68 
		6.25,3.68 6.44,3.54 6.21,3.54 6.21,3.54 6.13,3.31 6.07,3.54 5.84,3.54 6.03,3.68 	"/>
	<polygon class="st1" points="6.25,4.9 6.25,4.9 6.44,4.76 6.21,4.76 6.21,4.77 6.21,4.76 6.13,4.53 6.07,4.76 5.84,4.76 6.03,4.9 
		6.03,4.9 6.03,4.9 5.95,5.14 6.14,4.99 6.14,4.99 6.14,4.99 6.33,5.14 6.25,4.9 	"/>
	<polygon class="st1" points="4.97,1.1 4.9,0.86 4.83,1.1 4.6,1.1 4.79,1.23 4.79,1.23 4.79,1.23 4.71,1.47 4.9,1.32 4.9,1.32 
		4.9,1.32 5.09,1.47 5.01,1.23 5.01,1.23 5.01,1.23 5.21,1.1 4.97,1.1 	"/>
	<polygon class="st1" points="4.97,2.32 4.97,2.32 4.9,2.08 4.83,2.32 4.6,2.32 4.79,2.46 4.79,2.46 4.79,2.46 4.71,2.69 4.9,2.55 
		4.9,2.54 4.9,2.55 5.09,2.69 5.01,2.46 5.01,2.46 5.01,2.46 5.21,2.32 4.97,2.32 	"/>
	<polygon class="st1" points="4.97,3.54 4.9,3.31 4.83,3.54 4.6,3.54 4.79,3.68 4.79,3.68 4.79,3.68 4.71,3.92 4.9,3.77 4.9,3.77 
		4.9,3.77 5.09,3.92 5.01,3.68 5.01,3.68 5.01,3.68 5.21,3.54 4.97,3.54 	"/>
	<polygon class="st1" points="5.21,4.76 4.97,4.76 4.97,4.77 4.97,4.76 4.9,4.53 4.83,4.76 4.6,4.76 4.79,4.9 4.79,4.9 4.79,4.9 
		4.71,5.14 4.9,4.99 4.9,4.99 4.9,4.99 5.09,5.14 5.01,4.9 5.01,4.9 5.01,4.9 	"/>
	<polygon class="st1" points="3.56,1.23 3.55,1.23 3.48,1.47 3.67,1.32 3.67,1.32 3.67,1.32 3.86,1.47 3.78,1.23 3.77,1.23 
		3.77,1.23 3.97,1.1 3.73,1.1 3.73,1.1 3.66,0.86 3.6,1.1 3.36,1.1 3.56,1.23 	"/>
	<polygon class="st1" points="3.56,2.46 3.55,2.46 3.48,2.69 3.67,2.55 3.67,2.54 3.67,2.55 3.86,2.69 3.78,2.46 3.77,2.46 
		3.77,2.46 3.97,2.32 3.73,2.32 3.73,2.32 3.73,2.32 3.66,2.08 3.6,2.32 3.36,2.32 3.56,2.46 	"/>
	<polygon class="st1" points="3.56,3.68 3.55,3.68 3.48,3.92 3.67,3.77 3.67,3.77 3.67,3.77 3.86,3.92 3.78,3.68 3.77,3.68 
		3.77,3.68 3.97,3.54 3.73,3.54 3.73,3.54 3.66,3.31 3.6,3.54 3.36,3.54 3.56,3.68 	"/>
	<polygon class="st1" points="3.77,4.9 3.77,4.9 3.97,4.76 3.73,4.76 3.73,4.77 3.73,4.76 3.66,4.53 3.6,4.76 3.36,4.76 3.56,4.9 
		3.56,4.9 3.55,4.9 3.48,5.14 3.67,4.99 3.67,4.99 3.67,4.99 3.86,5.14 3.78,4.9 	"/>
	<polygon class="st1" points="2.34,1.23 2.34,1.23 2.26,1.47 2.45,1.32 2.64,1.47 2.56,1.23 2.56,1.23 2.56,1.23 2.75,1.1 2.52,1.1 
		2.44,0.86 2.38,1.1 2.14,1.1 2.34,1.23 	"/>
	<polygon class="st1" points="2.34,2.46 2.34,2.46 2.26,2.69 2.45,2.55 2.64,2.69 2.56,2.46 2.56,2.46 2.56,2.46 2.75,2.32 
		2.52,2.32 2.44,2.08 2.38,2.32 2.14,2.32 2.34,2.46 	"/>
	<polygon class="st1" points="2.34,3.68 2.34,3.68 2.26,3.92 2.45,3.77 2.64,3.92 2.56,3.68 2.56,3.68 2.56,3.68 2.75,3.54 
		2.52,3.54 2.44,3.31 2.38,3.54 2.14,3.54 2.34,3.68 	"/>
	<polygon class="st1" points="2.56,4.9 2.56,4.9 2.75,4.76 2.52,4.76 2.44,4.53 2.38,4.76 2.14,4.76 2.34,4.9 2.34,4.9 2.34,4.9 
		2.26,5.14 2.45,4.99 2.64,5.14 2.56,4.9 	"/>
	<polygon class="st1" points="1.12,1.23 1.12,1.23 1.04,1.47 1.23,1.32 1.23,1.32 1.23,1.32 1.42,1.47 1.34,1.23 1.34,1.23 
		1.34,1.23 1.54,1.1 1.3,1.1 1.23,0.86 1.16,1.1 0.93,1.1 1.12,1.23 	"/>
	<polygon class="st1" points="1.12,2.46 1.12,2.46 1.04,2.69 1.23,2.55 1.23,2.54 1.23,2.55 1.42,2.69 1.34,2.46 1.34,2.46 
		1.34,2.46 1.54,2.32 1.3,2.32 1.23,2.08 1.16,2.32 0.93,2.32 1.12,2.46 	"/>
	<polygon class="st1" points="1.12,3.68 1.12,3.68 1.04,3.92 1.23,3.77 1.23,3.77 1.23,3.77 1.42,3.92 1.34,3.68 1.34,3.68 
		1.34,3.68 1.54,3.54 1.3,3.54 1.23,3.31 1.16,3.54 0.93,3.54 1.12,3.68 	"/>
	<polygon class="st1" points="1.34,4.9 1.34,4.9 1.54,4.76 1.3,4.76 1.23,4.53 1.16,4.76 0.93,4.76 1.12,4.9 1.12,4.9 1.12,4.9 
		1.04,5.14 1.23,4.99 1.23,4.99 1.23,4.99 1.42,5.14 1.34,4.9 	"/>
	<polygon class="st1" points="6.81,1.71 6.81,1.71 6.73,1.47 6.67,1.71 6.44,1.71 6.63,1.84 6.63,1.84 6.63,1.85 6.55,2.08 
		6.74,1.93 6.93,2.08 6.85,1.85 6.85,1.84 6.85,1.84 7.04,1.71 6.81,1.71 	"/>
	<polygon class="st1" points="6.81,2.93 6.73,2.69 6.67,2.93 6.44,2.93 6.63,3.07 6.63,3.07 6.63,3.07 6.55,3.3 6.74,3.16 6.93,3.3 
		6.85,3.07 6.85,3.07 6.85,3.07 7.04,2.93 6.81,2.93 	"/>
	<polygon class="st1" points="6.81,4.15 6.81,4.15 6.73,3.92 6.67,4.15 6.44,4.15 6.63,4.29 6.63,4.29 6.63,4.29 6.55,4.53 
		6.74,4.38 6.93,4.53 6.85,4.29 6.85,4.29 6.85,4.29 7.04,4.15 6.81,4.15 	"/>
	<polygon class="st1" points="7.04,5.38 6.81,5.38 6.81,5.38 6.81,5.38 6.73,5.14 6.67,5.38 6.44,5.38 6.63,5.52 6.63,5.52 
		6.63,5.52 6.55,5.75 6.74,5.61 6.93,5.75 6.85,5.52 6.85,5.52 6.85,5.52 	"/>
	<polygon class="st1" points="6.81,0.49 6.81,0.49 6.73,0.25 6.67,0.49 6.44,0.49 6.63,0.63 6.63,0.63 6.63,0.63 6.55,0.86 
		6.74,0.72 6.93,0.86 6.85,0.63 6.85,0.63 6.85,0.63 7.04,0.49 6.81,0.49 	"/>
	<polygon class="st1" points="5.6,1.71 5.6,1.71 5.52,1.47 5.46,1.71 5.23,1.71 5.42,1.84 5.42,1.84 5.42,1.85 5.34,2.08 5.53,1.93 
		5.72,2.08 5.64,1.85 5.64,1.84 5.64,1.84 5.83,1.71 5.6,1.71 	"/>
	<polygon class="st1" points="5.6,2.93 5.52,2.69 5.46,2.93 5.23,2.93 5.42,3.07 5.42,3.07 5.42,3.07 5.34,3.3 5.53,3.16 5.72,3.3 
		5.64,3.07 5.64,3.07 5.64,3.07 5.83,2.93 5.6,2.93 	"/>
	<polygon class="st1" points="5.6,4.15 5.6,4.15 5.52,3.92 5.46,4.15 5.23,4.15 5.42,4.29 5.42,4.29 5.42,4.29 5.34,4.53 5.53,4.38 
		5.72,4.53 5.64,4.29 5.64,4.29 5.64,4.29 5.83,4.15 5.6,4.15 	"/>
	<polygon class="st1" points="5.83,5.38 5.6,5.38 5.6,5.38 5.6,5.38 5.52,5.14 5.46,5.38 5.23,5.38 5.42,5.52 5.42,5.52 5.42,5.52 
		5.34,5.75 5.53,5.61 5.72,5.75 5.64,5.52 5.64,5.52 5.64,5.52 	"/>
	<polygon class="st1" points="5.6,0.49 5.6,0.49 5.52,0.25 5.46,0.49 5.23,0.49 5.42,0.63 5.42,0.63 5.42,0.63 5.34,0.86 5.53,0.72 
		5.72,0.86 5.64,0.63 5.64,0.63 5.64,0.63 5.83,0.49 5.6,0.49 	"/>
	<polygon class="st1" points="4.34,1.71 4.34,1.71 4.27,1.47 4.2,1.71 3.97,1.71 4.16,1.84 4.16,1.84 4.16,1.85 4.08,2.08 
		4.27,1.93 4.27,1.93 4.27,1.93 4.46,2.08 4.38,1.85 4.38,1.84 4.38,1.84 4.58,1.71 4.34,1.71 	"/>
	<polygon class="st1" points="4.34,2.93 4.27,2.69 4.2,2.93 3.97,2.93 4.16,3.07 4.16,3.07 4.16,3.07 4.08,3.3 4.27,3.16 4.27,3.16 
		4.46,3.3 4.38,3.07 4.38,3.07 4.38,3.07 4.58,2.93 4.34,2.93 	"/>
	<polygon class="st1" points="4.34,4.15 4.34,4.15 4.27,3.92 4.2,4.15 3.97,4.15 4.16,4.29 4.16,4.29 4.16,4.29 4.08,4.53 
		4.27,4.38 4.27,4.38 4.27,4.38 4.46,4.53 4.38,4.29 4.38,4.29 4.38,4.29 4.58,4.15 4.34,4.15 	"/>
	<polygon class="st1" points="4.58,5.38 4.34,5.38 4.34,5.38 4.34,5.38 4.27,5.14 4.2,5.38 3.97,5.38 4.16,5.52 4.16,5.52 
		4.16,5.52 4.08,5.75 4.27,5.61 4.27,5.6 4.27,5.61 4.46,5.75 4.38,5.52 4.38,5.52 4.38,5.52 	"/>
	<polygon class="st1" points="4.34,0.49 4.34,0.49 4.27,0.25 4.2,0.49 3.97,0.49 4.16,0.63 4.16,0.63 4.16,0.63 4.08,0.86 
		4.27,0.72 4.27,0.71 4.27,0.72 4.46,0.86 4.38,0.63 4.38,0.63 4.38,0.63 4.58,0.49 4.34,0.49 	"/>
	<polygon class="st1" points="3.04,1.47 2.97,1.71 2.74,1.71 2.93,1.84 2.93,1.84 2.93,1.85 2.85,2.08 3.04,1.93 3.04,1.93 
		3.04,1.93 3.23,2.08 3.15,1.85 3.15,1.84 3.15,1.84 3.35,1.71 3.11,1.71 	"/>
	<polygon class="st1" points="3.04,2.69 2.97,2.93 2.74,2.93 2.93,3.07 2.93,3.07 2.93,3.07 2.85,3.3 3.04,3.16 3.04,3.16 3.23,3.3 
		3.15,3.07 3.15,3.07 3.15,3.07 3.35,2.93 3.11,2.93 	"/>
	<polygon class="st1" points="3.11,4.15 3.04,3.92 2.97,4.15 2.74,4.15 2.93,4.29 2.93,4.29 2.93,4.29 2.85,4.53 3.04,4.38 
		3.04,4.38 3.04,4.38 3.23,4.53 3.15,4.29 3.15,4.29 3.15,4.29 3.35,4.15 3.11,4.15 	"/>
	<polygon class="st1" points="3.35,5.38 3.11,5.38 3.04,5.14 2.97,5.38 2.74,5.38 2.93,5.52 2.93,5.52 2.93,5.52 2.85,5.75 
		3.04,5.61 3.04,5.6 3.04,5.61 3.23,5.75 3.15,5.52 3.15,5.52 3.15,5.52 	"/>
	<polygon class="st1" points="3.04,0.25 2.97,0.49 2.74,0.49 2.93,0.63 2.93,0.63 2.93,0.63 2.85,0.86 3.04,0.72 3.04,0.71 
		3.04,0.72 3.23,0.86 3.15,0.63 3.15,0.63 3.15,0.63 3.35,0.49 3.11,0.49 	"/>
	<polygon class="st1" points="1.9,1.71 1.9,1.71 1.83,1.47 1.77,1.71 1.53,1.71 1.73,1.84 1.73,1.84 1.73,1.85 1.65,2.08 1.84,1.93 
		1.84,1.93 1.84,1.93 2.03,2.08 1.95,1.85 1.95,1.84 1.95,1.84 2.14,1.71 1.91,1.71 	"/>
	<polygon class="st1" points="1.9,2.93 1.83,2.69 1.77,2.93 1.53,2.93 1.73,3.07 1.73,3.07 1.73,3.07 1.65,3.3 1.84,3.16 1.84,3.16 
		1.84,3.16 2.03,3.3 1.95,3.07 1.95,3.07 1.95,3.07 2.14,2.93 1.91,2.93 	"/>
	<polygon class="st1" points="1.9,4.15 1.9,4.15 1.83,3.92 1.77,4.15 1.53,4.15 1.73,4.29 1.73,4.29 1.73,4.29 1.65,4.53 1.84,4.38 
		1.84,4.38 1.84,4.38 2.03,4.53 1.95,4.29 1.95,4.29 1.95,4.29 2.14,4.15 1.91,4.15 	"/>
	<polygon class="st1" points="2.14,5.38 1.91,5.38 1.9,5.38 1.9,5.38 1.83,5.14 1.77,5.38 1.53,5.38 1.73,5.52 1.73,5.52 1.73,5.52 
		1.65,5.75 1.84,5.61 1.84,5.6 1.84,5.61 2.03,5.75 1.95,5.52 1.95,5.52 1.95,5.52 	"/>
	<polygon class="st1" points="1.9,0.49 1.9,0.49 1.83,0.25 1.77,0.49 1.53,0.49 1.73,0.63 1.73,0.63 1.73,0.63 1.65,0.86 1.84,0.72 
		1.84,0.71 1.84,0.72 2.03,0.86 1.95,0.63 1.95,0.63 1.95,0.63 2.14,0.49 1.91,0.49 	"/>
	<polygon class="st1" points="0.61,1.47 0.54,1.71 0.31,1.71 0.5,1.84 0.51,1.84 0.5,1.85 0.42,2.08 0.61,1.93 0.61,1.93 0.61,1.93 
		0.8,2.08 0.72,1.85 0.72,1.84 0.72,1.84 0.92,1.71 0.68,1.71 	"/>
	<polygon class="st1" points="0.61,2.69 0.54,2.93 0.31,2.93 0.5,3.07 0.51,3.07 0.5,3.07 0.42,3.3 0.61,3.16 0.61,3.16 0.8,3.3 
		0.72,3.07 0.72,3.07 0.72,3.07 0.92,2.93 0.68,2.93 	"/>
	<polygon class="st1" points="0.68,4.15 0.61,3.92 0.54,4.15 0.31,4.15 0.5,4.29 0.51,4.29 0.5,4.29 0.42,4.53 0.61,4.38 0.61,4.38 
		0.61,4.38 0.8,4.53 0.72,4.29 0.72,4.29 0.72,4.29 0.92,4.15 0.68,4.15 	"/>
	<polygon class="st1" points="0.92,5.38 0.68,5.38 0.61,5.14 0.54,5.38 0.31,5.38 0.5,5.52 0.51,5.52 0.5,5.52 0.42,5.75 0.61,5.61 
		0.61,5.6 0.61,5.61 0.8,5.75 0.72,5.52 0.72,5.52 0.72,5.52 	"/>
	<polygon class="st1" points="0.61,0.25 0.54,0.49 0.31,0.49 0.5,0.63 0.51,0.63 0.5,0.63 0.42,0.86 0.61,0.72 0.61,0.71 0.61,0.72 
		0.8,0.86 0.72,0.63 0.72,0.63 0.72,0.63 0.92,0.49 0.68,0.49 	"/>
</g>
</svg>
