<?xml version="1.0" encoding="utf-8"?>
<!-- Generator: Adobe Illustrator 23.1.0, SVG Export Plug-In . SVG Version: 6.00 Build 0)  -->
<svg version="1.1" id="Layer_1" xmlns="http://www.w3.org/2000/svg" xmlns:xlink="http://www.w3.org/1999/xlink" x="0px" y="0px"
	 viewBox="0 0 200 70" style="enable-background:new 0 0 200 70;" xml:space="preserve">
<style type="text/css">
	.st0{fill-rule:evenodd;clip-rule:evenodd;fill:#016596;}
	.st1{fill-rule:evenodd;clip-rule:evenodd;fill:#FFFFFF;}
	.st2{fill:#016596;}
</style>
<path class="st0" d="M198.52,59.25c0,5.13-4.21,9.29-9.4,9.29H10.88c-5.19,0-9.4-4.16-9.4-9.29V10.75c0-5.13,4.21-9.29,9.4-9.29
	h178.24c5.19,0,9.4,4.16,9.4,9.29V59.25z"/>
<path class="st1" d="M70.55,1.47H10.88c-5.19,0-9.4,4.16-9.4,9.29v48.49c0,5.13,4.21,9.29,9.4,9.29h59.67V1.47z"/>
<g>
	<path class="st0" d="M32.29,33.3l5.44,3.88c0.93,0.67,1.01,1.33,0.56,2.03l0.79,0.58l2.75-3.77c1.7-2.33,1.55-5.5-0.97-7.32
		l-5.49-3.95c-0.66-0.47-0.72-1.13-0.36-1.87l-0.79-0.56l-2.93,3.99C29.82,28.31,30.28,31.86,32.29,33.3z"/>
	<path class="st0" d="M35.93,20.96l7.51,5.45c1.52,1.1,1.72,3.92,0.61,5.36l0.64,0.47l5.18-7.2c2.33-3.24,2.19-8.02-1.46-10.64
		l-8.03-5.77c-1.12-0.81-1.69-2.18-0.75-3.49l-0.69-0.48l-4.57,6.24C32.22,13.83,33,18.83,35.93,20.96z"/>
	<path class="st0" d="M50.26,41.16c-7.52,0-15.05,0-22.57,0l-0.79,2.67h6.05l1.08,3.63c3.3,0,6.6,0,9.89,0L45,43.82h6.05
		L50.26,41.16z"/>
	<path class="st0" d="M58.06,62.18c-0.03-0.04-0.08-0.07-0.14-0.1c-0.06-0.03-0.13-0.06-0.21-0.09c-0.08-0.03-0.14-0.05-0.19-0.07
		c-0.05-0.02-0.09-0.05-0.11-0.07c-0.03-0.02-0.04-0.05-0.05-0.07c-0.01-0.02-0.01-0.05-0.01-0.08c0-0.03,0.01-0.06,0.02-0.08
		c0.01-0.03,0.03-0.05,0.05-0.07c0.02-0.02,0.06-0.04,0.09-0.05c0.04-0.01,0.08-0.02,0.14-0.02c0.08,0,0.15,0.01,0.2,0.03
		c0.06,0.02,0.11,0.06,0.17,0.1l0.11-0.13c-0.06-0.05-0.13-0.09-0.21-0.12c-0.07-0.03-0.16-0.04-0.26-0.04
		c-0.07,0-0.14,0.01-0.2,0.03c-0.06,0.02-0.11,0.04-0.15,0.08c-0.04,0.03-0.07,0.07-0.1,0.12s-0.04,0.1-0.04,0.16
		c0,0.05,0.01,0.1,0.02,0.14c0.02,0.04,0.04,0.08,0.07,0.11c0.03,0.03,0.08,0.06,0.14,0.09c0.06,0.03,0.13,0.06,0.21,0.09
		c0.07,0.02,0.13,0.05,0.18,0.07c0.05,0.02,0.09,0.05,0.11,0.07c0.03,0.02,0.05,0.05,0.06,0.08c0.01,0.03,0.02,0.06,0.02,0.09
		c0,0.08-0.03,0.14-0.09,0.19c-0.06,0.05-0.14,0.07-0.24,0.07c-0.08,0-0.15-0.02-0.22-0.05c-0.07-0.03-0.13-0.08-0.19-0.13
		l-0.11,0.12c0.06,0.06,0.14,0.11,0.23,0.15c0.09,0.04,0.19,0.06,0.29,0.06c0.08,0,0.15-0.01,0.22-0.03
		c0.06-0.02,0.12-0.05,0.16-0.09c0.04-0.04,0.08-0.08,0.1-0.13c0.02-0.05,0.03-0.11,0.03-0.16c0-0.06-0.01-0.1-0.02-0.15
		C58.12,62.25,58.1,62.21,58.06,62.18z"/>
	<path class="st0" d="M59.57,61.34l-0.37,0.89c-0.01,0.02-0.02,0.05-0.03,0.07c-0.01,0.03-0.02,0.05-0.03,0.08
		c-0.01,0.03-0.02,0.05-0.03,0.08c-0.01,0.02-0.01,0.04-0.02,0.06c0-0.02-0.01-0.03-0.02-0.06c-0.01-0.02-0.02-0.05-0.03-0.07
		c-0.01-0.03-0.02-0.05-0.03-0.08c-0.01-0.03-0.02-0.05-0.03-0.07l-0.36-0.89h-0.19v1.48h0.17v-1.01v-0.16
		c0,0.01,0.01,0.03,0.02,0.05c0.01,0.02,0.01,0.04,0.02,0.06c0.01,0.02,0.02,0.04,0.03,0.07c0.01,0.02,0.02,0.04,0.03,0.06
		l0.41,0.96l0.41-0.96c0.01-0.02,0.02-0.04,0.03-0.06s0.02-0.05,0.03-0.07c0.01-0.02,0.02-0.04,0.02-0.06
		c0.01-0.02,0.01-0.04,0.02-0.05v0.16v1.01h0.16v-1.48H59.57z"/>
	<path class="st0" d="M29.73,55.96c1.06-0.62,1.72-1.52,1.72-2.76c0-2.48-2.05-3.49-4.3-3.49h-6.26v13.16h6.2
		c2.65,0,5.46-1.14,5-4.16C31.84,56.99,31.14,56.57,29.73,55.96z M23.72,52.23h3.25c2.03,0,2.11,2.81,0.13,2.81h-3.38V52.23z
		 M27.35,60.38h-3.63v-3h3.63C30.02,57.38,29.86,60.38,27.35,60.38z"/>
	<path class="st0" d="M42.16,55.96c1.06-0.62,1.72-1.52,1.72-2.76c0-2.48-2.05-3.49-4.3-3.49h-6.26v13.16h6.2
		c2.65,0,5.46-1.14,5.01-4.16C44.27,56.99,43.57,56.57,42.16,55.96z M39.41,52.23c2.03,0,2.11,2.81,0.13,2.81h-3.38
		c0,0,0-2.81,0-2.81H39.41z M39.78,60.38h-3.63v-3h3.63C42.45,57.38,42.29,60.38,39.78,60.38z"/>
	<path class="st0" d="M54.59,55.96c1.06-0.62,1.72-1.52,1.72-2.76c0-2.48-2.05-3.49-4.29-3.49h-6.26v13.16h6.2
		c2.65,0,5.46-1.14,5-4.16C56.7,56.99,56,56.57,54.59,55.96z M48.58,52.23L48.58,52.23h3.25c2.03,0,2.11,2.81,0.13,2.81h-3.38V52.23
		z M52.21,60.38h-3.63v-3h3.63C54.88,57.38,54.72,60.38,52.21,60.38z"/>
</g>
<g>
	<polygon class="st1" points="155.19,51.87 155.19,49.52 148.58,49.52 148.58,46.62 153.9,46.62 153.9,44.28 148.58,44.28 
		148.58,42.2 154.92,42.2 154.92,39.85 146.01,39.85 146.01,51.87 	"/>
	<path class="st1" d="M102.28,46.34c-0.33-0.43-0.75-0.76-1.25-0.98c0.42-0.24,0.74-0.56,0.97-0.96c0.23-0.4,0.35-0.86,0.35-1.37
		c0-1.03-0.36-1.82-1.07-2.36c-0.71-0.54-1.68-0.82-2.89-0.82h-5.73v12.03h5.68c0.67,0,1.27-0.08,1.82-0.25
		c0.55-0.17,1.01-0.41,1.4-0.74c0.39-0.33,0.69-0.73,0.9-1.22c0.21-0.49,0.32-1.05,0.32-1.68
		C102.78,47.33,102.61,46.78,102.28,46.34z M95.1,42.06h3.18c0.55,0,0.94,0.1,1.18,0.29c0.24,0.19,0.36,0.48,0.36,0.86
		c0,0.33-0.1,0.6-0.31,0.82c-0.21,0.21-0.57,0.32-1.1,0.32h-3.3V42.06L95.1,42.06z M99.77,49.17c-0.29,0.28-0.74,0.42-1.35,0.42
		H95.1v-3.11h3.32c1.19,0,1.78,0.52,1.78,1.55C100.21,48.51,100.06,48.89,99.77,49.17z"/>
	<path class="st1" d="M114.56,46.57v-6.72h-2.5v6.75c0,0.97-0.23,1.73-0.69,2.28c-0.46,0.55-1.09,0.82-1.88,0.82
		s-1.42-0.28-1.87-0.84c-0.45-0.56-0.68-1.33-0.68-2.3v-6.72h-2.5v6.75c0,0.88,0.12,1.66,0.37,2.34c0.24,0.68,0.59,1.25,1.03,1.71
		c0.44,0.46,0.97,0.82,1.6,1.06c0.62,0.24,1.31,0.36,2.06,0.36c1.59,0,2.84-0.48,3.73-1.44C114.12,49.67,114.56,48.32,114.56,46.57
		L114.56,46.57z"/>
	<path class="st1" d="M126.05,48.23c0-0.65-0.12-1.19-0.37-1.61c-0.25-0.42-0.57-0.77-0.97-1.05c-0.4-0.28-0.85-0.49-1.34-0.64
		c-0.49-0.15-0.99-0.29-1.49-0.4c-0.5-0.11-0.91-0.22-1.23-0.31c-0.32-0.09-0.58-0.19-0.77-0.29c-0.19-0.1-0.32-0.22-0.4-0.35
		c-0.08-0.13-0.12-0.29-0.12-0.49c0-0.14,0.03-0.27,0.09-0.39c0.06-0.13,0.16-0.24,0.3-0.34c0.14-0.1,0.33-0.19,0.55-0.25
		c0.23-0.06,0.51-0.09,0.84-0.09c0.57,0,1.09,0.11,1.54,0.32c0.46,0.21,0.89,0.52,1.29,0.92l1.8-1.68c-0.59-0.6-1.26-1.06-1.99-1.39
		c-0.73-0.33-1.59-0.5-2.56-0.5c-0.62,0-1.2,0.08-1.74,0.24c-0.54,0.16-1.01,0.39-1.42,0.7c-0.4,0.3-0.72,0.67-0.95,1.11
		c-0.23,0.43-0.35,0.93-0.35,1.48c0,0.6,0.09,1.09,0.29,1.49c0.19,0.4,0.46,0.73,0.8,1c0.35,0.26,0.76,0.48,1.24,0.65
		c0.48,0.17,1.01,0.32,1.58,0.45c0.58,0.13,1.06,0.25,1.43,0.36c0.37,0.11,0.65,0.23,0.85,0.36c0.2,0.13,0.33,0.26,0.4,0.4
		c0.07,0.14,0.11,0.31,0.11,0.51c0,0.46-0.18,0.79-0.53,1c-0.35,0.21-0.9,0.31-1.65,0.31c-0.61,0-1.18-0.11-1.72-0.32
		c-0.54-0.21-1.03-0.56-1.47-1.06l-1.8,1.55c0.48,0.68,1.14,1.21,2,1.6c0.86,0.39,1.81,0.58,2.86,0.58c0.86,0,1.59-0.09,2.2-0.28
		c0.61-0.18,1.12-0.44,1.53-0.78c0.4-0.34,0.7-0.74,0.89-1.21C125.95,49.33,126.05,48.81,126.05,48.23L126.05,48.23z"/>
	<polygon class="st1" points="130.57,51.87 130.57,39.85 128.07,39.85 128.07,51.87 	"/>
	<path class="st1" d="M143.28,51.87V39.85h-2.46v5.08c0,0.17,0,0.38,0.01,0.64c0.01,0.25,0.01,0.51,0.01,0.77
		c0,0.25,0,0.49,0.01,0.71c0.01,0.22,0.01,0.39,0.01,0.51c-0.08-0.16-0.21-0.37-0.38-0.63c-0.17-0.26-0.34-0.5-0.49-0.73l-4.42-6.36
		h-2.39v12.03h2.46v-5.29c0-0.17,0-0.38-0.01-0.64c-0.01-0.25-0.01-0.5-0.01-0.76c0-0.26,0-0.51-0.01-0.73
		c-0.01-0.22-0.01-0.39-0.01-0.51c0.08,0.16,0.21,0.37,0.38,0.63c0.17,0.26,0.34,0.5,0.49,0.73l4.59,6.56L143.28,51.87L143.28,51.87
		z"/>
	<path class="st1" d="M165.39,48.23c0-0.65-0.13-1.19-0.38-1.61c-0.25-0.42-0.58-0.77-0.97-1.05c-0.4-0.28-0.85-0.49-1.34-0.64
		c-0.49-0.15-0.99-0.29-1.49-0.4c-0.5-0.11-0.91-0.22-1.23-0.31c-0.32-0.09-0.58-0.19-0.77-0.29c-0.19-0.1-0.32-0.22-0.4-0.35
		c-0.08-0.13-0.12-0.29-0.12-0.49c0-0.14,0.03-0.27,0.09-0.39c0.06-0.13,0.16-0.24,0.3-0.34c0.14-0.1,0.33-0.19,0.55-0.25
		c0.23-0.06,0.51-0.09,0.84-0.09c0.57,0,1.09,0.11,1.54,0.32s0.89,0.52,1.29,0.92l1.8-1.68c-0.6-0.6-1.26-1.06-1.99-1.39
		c-0.73-0.33-1.58-0.5-2.56-0.5c-0.62,0-1.2,0.08-1.74,0.24c-0.54,0.16-1.01,0.39-1.42,0.7c-0.4,0.3-0.72,0.67-0.95,1.11
		c-0.23,0.43-0.35,0.93-0.35,1.48c0,0.6,0.09,1.09,0.29,1.49c0.19,0.4,0.46,0.73,0.8,1c0.35,0.26,0.76,0.48,1.24,0.65
		c0.48,0.17,1.01,0.32,1.58,0.45c0.58,0.13,1.06,0.25,1.43,0.36c0.37,0.11,0.65,0.23,0.85,0.36c0.2,0.13,0.33,0.26,0.4,0.4
		c0.07,0.14,0.11,0.31,0.11,0.51c0,0.46-0.17,0.79-0.53,1c-0.35,0.21-0.9,0.31-1.65,0.31c-0.61,0-1.18-0.11-1.72-0.32
		c-0.54-0.21-1.03-0.56-1.47-1.06l-1.8,1.55c0.48,0.68,1.14,1.21,2,1.6c0.86,0.39,1.81,0.58,2.86,0.58c0.86,0,1.59-0.09,2.2-0.28
		c0.61-0.18,1.12-0.44,1.53-0.78c0.4-0.34,0.7-0.74,0.89-1.21C165.3,49.33,165.39,48.81,165.39,48.23L165.39,48.23z"/>
	<path class="st1" d="M176.13,48.23c0-0.65-0.13-1.19-0.37-1.61c-0.25-0.42-0.58-0.77-0.97-1.05c-0.4-0.28-0.85-0.49-1.34-0.64
		c-0.49-0.15-0.99-0.29-1.49-0.4c-0.5-0.11-0.91-0.22-1.23-0.31c-0.32-0.09-0.58-0.19-0.77-0.29c-0.19-0.1-0.32-0.22-0.4-0.35
		c-0.08-0.13-0.12-0.29-0.12-0.49c0-0.14,0.03-0.27,0.09-0.39c0.06-0.13,0.16-0.24,0.3-0.34c0.14-0.1,0.33-0.19,0.55-0.25
		c0.23-0.06,0.51-0.09,0.84-0.09c0.57,0,1.09,0.11,1.54,0.32c0.46,0.21,0.89,0.52,1.29,0.92l1.8-1.68c-0.6-0.6-1.26-1.06-1.99-1.39
		c-0.73-0.33-1.59-0.5-2.56-0.5c-0.62,0-1.2,0.08-1.74,0.24c-0.54,0.16-1.01,0.39-1.42,0.7c-0.4,0.3-0.72,0.67-0.95,1.11
		c-0.23,0.43-0.35,0.93-0.35,1.48c0,0.6,0.09,1.09,0.29,1.49c0.19,0.4,0.46,0.73,0.8,1c0.35,0.26,0.76,0.48,1.24,0.65
		c0.48,0.17,1.01,0.32,1.58,0.45c0.58,0.13,1.06,0.25,1.43,0.36c0.37,0.11,0.65,0.23,0.85,0.36c0.2,0.13,0.33,0.26,0.4,0.4
		c0.07,0.14,0.11,0.31,0.11,0.51c0,0.46-0.18,0.79-0.53,1c-0.35,0.21-0.9,0.31-1.65,0.31c-0.61,0-1.18-0.11-1.72-0.32
		c-0.54-0.21-1.03-0.56-1.47-1.06l-1.8,1.55c0.48,0.68,1.14,1.21,2,1.6c0.86,0.39,1.81,0.58,2.86,0.58c0.86,0,1.59-0.09,2.2-0.28
		c0.61-0.18,1.12-0.44,1.53-0.78c0.41-0.34,0.7-0.74,0.89-1.21C176.03,49.33,176.13,48.81,176.13,48.23L176.13,48.23z"/>
</g>
<g>
	<path class="st1" d="M101.42,21.76c-0.76-0.86-1.95-1.65-3.07-1.95c-0.49-0.13-1.03-0.2-1.63-0.2c-0.84,0-1.61,0.15-2.31,0.46
		c-0.7,0.3-1.29,0.73-1.8,1.27c-0.5,0.54-0.89,1.2-1.17,1.96c-0.28,0.76-0.42,1.6-0.42,2.52c0,0.95,0.13,1.81,0.4,2.57
		c0.27,0.76,0.65,1.41,1.14,1.95c0.5,0.54,1.08,0.95,1.77,1.25c0.68,0.29,1.45,0.44,2.29,0.44c1.55,0,4.24-0.84,5.01-2.34l-1.82-1.6
		c-0.52,0.82-2.14,1.54-3.11,1.54c-0.48,0-0.9-0.1-1.28-0.29c-0.38-0.19-0.7-0.46-0.96-0.81c-0.26-0.34-0.46-0.75-0.6-1.21
		c-0.13-0.46-0.2-0.96-0.2-1.5c0-0.56,0.07-1.07,0.2-1.54c0.13-0.46,0.33-0.86,0.59-1.2c0.26-0.34,0.57-0.6,0.95-0.79
		c0.38-0.19,0.81-0.28,1.28-0.28c0.96,0,2.32,0.63,2.96,1.46L101.42,21.76L101.42,21.76z"/>
	<polygon class="st1" points="136.53,31.82 136.53,29.47 129.91,29.47 129.91,26.56 135.24,26.56 135.24,24.23 129.91,24.23 
		129.91,22.15 136.25,22.15 136.25,19.79 127.35,19.79 127.35,31.82 	"/>
	<path class="st1" d="M148.34,23.01c-0.32-0.76-0.77-1.38-1.34-1.86c-0.57-0.48-1.24-0.83-2.01-1.04c-0.78-0.21-1.62-0.32-2.54-0.32
		h-4.01v12.03h3.83c0.82,0,1.62-0.12,2.41-0.34c0.79-0.23,1.49-0.59,2.11-1.07c0.62-0.49,1.11-1.11,1.48-1.87
		c0.37-0.76,0.56-1.67,0.56-2.72C148.83,24.71,148.66,23.78,148.34,23.01z M145.95,27.31c-0.16,0.45-0.4,0.84-0.71,1.16
		c-0.32,0.32-0.72,0.57-1.22,0.75c-0.49,0.18-1.08,0.27-1.75,0.27h-1.26v-7.35h1.36c1.36,0,2.33,0.31,2.93,0.92
		c0.6,0.61,0.9,1.53,0.9,2.76C146.19,26.36,146.11,26.86,145.95,27.31z"/>
	<polygon class="st1" points="153.87,31.82 153.87,19.79 151.31,19.79 151.31,31.82 	"/>
	<polygon class="st1" points="165.82,22.16 165.82,19.79 155.9,19.79 155.9,22.16 159.58,22.16 159.58,31.82 162.14,31.82 
		162.14,22.16 	"/>
	<path class="st1" d="M188.47,23.01c-0.32-0.76-0.77-1.38-1.34-1.86c-0.57-0.48-1.24-0.83-2.01-1.04c-0.78-0.21-1.62-0.32-2.54-0.32
		h-4.01v12.03h3.83c0.82,0,1.62-0.12,2.41-0.34c0.79-0.23,1.49-0.59,2.11-1.07c0.62-0.49,1.11-1.11,1.48-1.87
		c0.37-0.76,0.56-1.67,0.56-2.72C188.96,24.71,188.8,23.78,188.47,23.01z M186.08,27.31c-0.16,0.45-0.4,0.84-0.71,1.16
		c-0.32,0.32-0.72,0.57-1.22,0.75s-1.08,0.27-1.75,0.27h-1.26v-7.35h1.36c1.36,0,2.33,0.31,2.93,0.92c0.6,0.61,0.9,1.53,0.9,2.76
		C186.32,26.36,186.24,26.86,186.08,27.31z"/>
	<polygon class="st1" points="176.65,31.82 176.65,29.47 170.04,29.47 170.04,26.56 175.36,26.56 175.36,24.23 170.04,24.23 
		170.04,22.15 176.37,22.15 176.37,19.79 167.47,19.79 167.47,31.82 	"/>
	<path class="st1" d="M113.26,21.76c-0.76-0.86-1.95-1.65-3.07-1.95c-0.49-0.13-1.03-0.2-1.63-0.2c-0.84,0-1.61,0.15-2.31,0.46
		c-0.7,0.3-1.29,0.73-1.79,1.27c-0.5,0.54-0.89,1.2-1.17,1.96c-0.28,0.76-0.42,1.6-0.42,2.52c0,0.95,0.13,1.81,0.4,2.57
		c0.27,0.76,0.65,1.41,1.15,1.95c0.49,0.54,1.08,0.95,1.77,1.25c0.68,0.29,1.45,0.44,2.29,0.44c1.55,0,4.24-0.84,5.01-2.34
		l-1.82-1.6c-0.52,0.82-2.14,1.54-3.11,1.54c-0.48,0-0.9-0.1-1.28-0.29c-0.38-0.19-0.7-0.46-0.96-0.81
		c-0.26-0.34-0.46-0.75-0.6-1.21c-0.13-0.46-0.2-0.96-0.2-1.5c0-0.56,0.07-1.07,0.2-1.54c0.13-0.46,0.33-0.86,0.59-1.2
		c0.26-0.34,0.57-0.6,0.95-0.79c0.38-0.19,0.81-0.28,1.28-0.28c0.96,0,2.32,0.63,2.96,1.46L113.26,21.76L113.26,21.76z"/>
	<path class="st1" d="M85.72,19.79h-2.49l-4.91,12.03h2.75l1.01-2.68h4.69l1.01,2.68h2.82L85.72,19.79z M82.95,26.85l0.82-2.18
		c0.13-0.36,0.26-0.7,0.38-1.03c0.12-0.33,0.2-0.61,0.27-0.84c0.06,0.23,0.15,0.51,0.27,0.84c0.12,0.33,0.24,0.68,0.38,1.03
		l0.82,2.18H82.95z"/>
	<path class="st1" d="M122.9,27.25c0.82-0.3,1.73-0.84,2.14-1.42c0.41-0.58,0.61-1.32,0.61-2.23c0-0.64-0.12-1.2-0.35-1.68
		c-0.23-0.48-0.55-0.87-0.95-1.19c-0.4-0.32-0.87-0.56-1.41-0.71c-0.54-0.15-1.11-0.23-1.7-0.23h-5.97v12.03h2.56v-4.33l2.29,0.1
		l2.68,4.23h2.95L122.9,27.25z M121.19,25.22h-3.35v-3.09h3.35c0.57,0,1.02,0.12,1.35,0.35c0.32,0.23,0.49,0.63,0.49,1.18
		C123.02,24.7,122.41,25.22,121.19,25.22z"/>
</g>
<path class="st2" d="M189.12,70H10.88C4.88,70,0,65.18,0,59.25V10.75C0,4.82,4.88,0,10.88,0h178.24c6,0,10.88,4.82,10.88,10.75
	v48.49C200,65.18,195.12,70,189.12,70z M10.88,2.93c-4.36,0-7.91,3.51-7.91,7.82v48.49c0,4.31,3.55,7.82,7.91,7.82h178.24
	c4.36,0,7.91-3.51,7.91-7.82V10.75c0-4.31-3.55-7.82-7.91-7.82H10.88z"/>
</svg>
