<?xml version="1.0" encoding="utf-8"?>
<!-- Generator: Adobe Illustrator 23.1.0, SVG Export Plug-In . SVG Version: 6.00 Build 0)  -->
<svg version="1.1" id="Layer_1" xmlns="http://www.w3.org/2000/svg" xmlns:xlink="http://www.w3.org/1999/xlink" x="0px" y="0px"
	 viewBox="0 0 146 40" style="enable-background:new 0 0 146 40;" xml:space="preserve">
<style type="text/css">
	.st0{fill:#FFFFFF;}
	.st1{fill:#E0041B;}
	.st2{fill:#E00425;}
</style>
<g>
	<g>
		<path d="M69.8,10.81h-4.37v4.06h4.87v1.22h-6.33V4.83h6.08v1.22h-4.62v3.56h4.37V10.81z"/>
		<path d="M74.69,16.09v-4.78l-3.56-6.48h1.65l1.59,3.11c0.43,0.85,0.77,1.54,1.12,2.32h0.03c0.32-0.74,0.7-1.47,1.13-2.32
			l1.62-3.11h1.65l-3.77,6.46v4.79H74.69z"/>
		<path d="M86.64,10.81h-4.37v4.06h4.87v1.22h-6.33V4.83h6.08v1.22h-4.62v3.56h4.37V10.81z"/>
		<path d="M90.86,16.09L88,4.83h1.54l1.34,5.69c0.33,1.4,0.63,2.81,0.83,3.89h0.03c0.18-1.12,0.53-2.45,0.92-3.91l1.5-5.68h1.52
			l1.37,5.71c0.32,1.34,0.62,2.67,0.78,3.86h0.03c0.23-1.24,0.55-2.49,0.9-3.89l1.49-5.68h1.49l-3.19,11.26h-1.52l-1.42-5.86
			c-0.35-1.44-0.58-2.54-0.73-3.67h-0.03c-0.2,1.12-0.45,2.22-0.87,3.67l-1.6,5.86H90.86z"/>
		<path d="M104.44,4.83v11.26h-1.45V4.83H104.44z"/>
		<path d="M108.8,6.07h-3.42V4.83h8.33v1.24h-3.44v10.02h-1.47V6.07z"/>
		<path d="M114.29,16.09V4.83h1.59l3.61,5.69c0.83,1.32,1.49,2.51,2.02,3.66l0.03-0.02c-0.13-1.5-0.17-2.87-0.17-4.63V4.83h1.37
			v11.26h-1.47l-3.57-5.71c-0.78-1.25-1.54-2.54-2.1-3.76l-0.05,0.02c0.08,1.42,0.12,2.77,0.12,4.64v4.81H114.29z"/>
		<path d="M130.28,10.81h-4.37v4.06h4.87v1.22h-6.33V4.83h6.08v1.22h-4.62v3.56h4.37V10.81z"/>
		<path d="M131.98,14.32c0.65,0.4,1.6,0.73,2.6,0.73c1.49,0,2.35-0.78,2.35-1.92c0-1.05-0.6-1.65-2.12-2.24
			c-1.84-0.65-2.97-1.6-2.97-3.19c0-1.75,1.45-3.06,3.64-3.06c1.15,0,1.99,0.27,2.49,0.55l-0.4,1.19c-0.37-0.2-1.12-0.53-2.14-0.53
			c-1.54,0-2.12,0.92-2.12,1.69c0,1.05,0.68,1.57,2.24,2.17c1.9,0.74,2.87,1.65,2.87,3.31c0,1.74-1.29,3.24-3.94,3.24
			c-1.09,0-2.27-0.32-2.87-0.72L131.98,14.32z"/>
		<path d="M139.56,14.32c0.65,0.4,1.6,0.73,2.6,0.73c1.49,0,2.35-0.78,2.35-1.92c0-1.05-0.6-1.65-2.12-2.24
			c-1.84-0.65-2.97-1.6-2.97-3.19c0-1.75,1.45-3.06,3.64-3.06c1.15,0,1.99,0.27,2.49,0.55l-0.4,1.19c-0.37-0.2-1.12-0.53-2.14-0.53
			c-1.54,0-2.12,0.92-2.12,1.69c0,1.05,0.68,1.57,2.24,2.17c1.9,0.74,2.87,1.65,2.87,3.31c0,1.74-1.29,3.24-3.94,3.24
			c-1.09,0-2.27-0.32-2.87-0.72L139.56,14.32z"/>
	</g>
	<g>
		<path d="M69.59,20.86h-5.62v-2.03h13.67v2.03H72V37.3h-2.41V20.86z"/>
		<path d="M79.15,19.08c1.21-0.25,2.93-0.38,4.57-0.38c2.55,0,4.19,0.47,5.34,1.51c0.93,0.82,1.45,2.08,1.45,3.51
			c0,2.44-1.53,4.06-3.48,4.71v0.08c1.42,0.49,2.27,1.81,2.71,3.73c0.6,2.58,1.04,4.36,1.42,5.07h-2.47
			c-0.3-0.52-0.71-2.11-1.23-4.41c-0.55-2.55-1.53-3.51-3.7-3.59h-2.25v8h-2.38V19.08z M81.53,27.49h2.44c2.55,0,4.16-1.4,4.16-3.51
			c0-2.38-1.73-3.43-4.25-3.45c-1.15,0-1.97,0.11-2.36,0.22V27.49z"/>
		<path d="M97,31.49l-1.92,5.81h-2.47l6.27-18.47h2.88l6.3,18.47h-2.55l-1.97-5.81H97z M103.06,29.63l-1.81-5.32
			c-0.41-1.21-0.69-2.3-0.96-3.37h-0.05c-0.27,1.1-0.58,2.22-0.93,3.34l-1.81,5.34H103.06z"/>
		<path d="M112.09,37.3l-6.03-18.47h2.58l2.88,9.1c0.79,2.49,1.48,4.74,1.97,6.91h0.05c0.52-2.14,1.29-4.47,2.11-6.88l3.12-9.13
			h2.55l-6.6,18.47H112.09z"/>
		<path d="M132.88,28.64h-7.18v6.66h8v2h-10.38V18.83h9.97v2h-7.59v5.84h7.18V28.64z"/>
		<path d="M135.73,18.83h2.38V35.3H146v2h-10.27V18.83z"/>
	</g>
	<g>
		<path class="st0" d="M29.64,4.45C28.24,2.94,24.73,0,18.59,0c-4.4,0-6.83,1-8.98,1.89c-1.96,0.81-3.5,1.43-6.13,1.08L2.5,2.84
			v2.05H0.83v1.69H0v32.57l0.68,0.15c2.3,0.51,3.9,0.55,5.61,0.44c2.32-0.14,4.18-0.72,5.96-1.29c1.73-0.54,3.37-1.06,5.37-1.16
			c7.4-0.41,9.42,2.31,9.43,2.34L27.31,40h4.64l0.26-0.38c0.02-0.03,2.03-2.75,9.43-2.34c1.99,0.11,3.63,0.63,5.37,1.16
			c1.8,0.56,3.66,1.15,5.97,1.29c1.7,0.11,3.31,0.07,5.6-0.44l0.68-0.15V6.58h-0.83V4.88h-1.66V2.84l-0.98,0.13
			c-2.63,0.35-4.18-0.28-6.13-1.08C47.51,1,45.08,0,40.68,0C34.55,0,31.03,2.94,29.64,4.45"/>
		<path d="M27.79,39.13c0,0-2.02-3.18-10.2-2.72c-4.24,0.23-6.94,2.18-11.35,2.45c-1.54,0.09-3.07,0.09-5.37-0.42v-31H1.7V5.76h1.67
			V3.83c5.82,0.79,6.91-2.96,15.22-2.96c7.31,0,10.62,4.33,11.04,4.94c0.43-0.61,3.74-4.94,11.04-4.94c8.31,0,9.39,3.75,15.22,2.96
			v1.93h1.66v1.68h0.83v31c-2.29,0.51-3.82,0.51-5.36,0.42c-4.41-0.27-7.11-2.22-11.35-2.45c-8.18-0.46-10.2,2.72-10.2,2.72H27.79"
			/>
		<path class="st0" d="M29.64,38.15c0.02,0.04-0.44-1.59-2.13-3.23c-1.79-1.73-4.95-3.46-10.38-3.2c-1.42,0.06-4.14,0.52-7.32,1.99
			c-1.73,0.81-3.73,1.57-5.61,1.32V4.75C6.74,4.9,8.46,4.2,10.26,3.46c2-0.82,4.27-1.75,8.33-1.75c7.28,0,10.22,4.38,10.35,4.57
			l0.7,1.07l0.7-1.07c0.13-0.19,3.07-4.57,10.35-4.57c4.06,0,6.33,0.93,8.33,1.75c1.8,0.73,3.51,1.44,6.05,1.29v30.27
			c-1.88,0.25-3.88-0.51-5.62-1.32c-3.17-1.47-5.88-1.92-7.31-1.99c-5.44-0.26-8.6,1.48-10.38,3.2
			C30.07,36.56,29.61,38.19,29.64,38.15"/>
		<path class="st0" d="M55.9,6.59V36c-3.02,0.55-4.8-0.01-7.02-0.72c-2-0.64-4.27-1.36-7.96-1.36c-6.37,0-9.57,2.8-10.7,4.08h1.18
			c1.38-1.28,4.36-3.24,9.51-3.24c3.55,0,5.76,0.7,7.7,1.32c2.39,0.76,4.45,1.41,8.1,0.6h0V6.59"/>
		<path class="st0" d="M3.37,6.59V36c3.02,0.55,4.8-0.01,7.02-0.72c2-0.64,4.28-1.36,7.96-1.36c6.38,0,9.57,2.8,10.7,4.08h-1.18
			c-1.38-1.28-4.36-3.24-9.51-3.24c-3.55,0-5.76,0.7-7.7,1.32c-2.39,0.76-4.45,1.41-8.1,0.6V6.59"/>
		<path d="M6.2,6.9C6,6.91,5.87,6.94,5.87,6.94v25.43c0,0,0.15-0.1,0.37-0.27H6.2V18.86c0.72-0.15,1.35-0.33,1.95-0.52V18
			c-0.6,0.19-1.23,0.37-1.95,0.52V6.9 M42.37,3.75v6.84c0.12-0.1,0.22-0.2,0.33-0.3V3.78c1.51,0.13,3.09,0.64,4.62,1.21V4.63
			c-1.59-0.58-3.21-1.11-4.78-1.21c-1.06-0.06-2.11-0.04-3.1,0.05l-0.01,0.33C40.39,3.72,41.37,3.69,42.37,3.75 M27.36,32.23
			c-1.71-1.9-4.76-2.95-8.6-3c-0.38,0.08-0.73,0.13-1.03,0.16c-0.89,0.11-1.71,0.24-2.48,0.39c0.47-0.06,0.97-0.12,1.49-0.16
			c4.86-0.36,8.84,0.81,10.65,3.16l0.3,0.38V20c-0.08,0.61-0.19,1.18-0.33,1.71V32.23 M16.57,28.42c0.11-0.03,0.21-0.05,0.32-0.09
			V16.01c2.53-0.13,5.33,0.19,7.49,1.08c0-0.13-0.01-0.23-0.01-0.35c-2.19-0.88-4.97-1.2-7.49-1.06V5.11
			c-0.11-0.02-0.21-0.03-0.32-0.04V15.7c-2.31,0.15-3.89,0.65-5.45,1.23v0.35c1.57-0.57,3.14-1.09,5.45-1.24V28.42 M53.25,6.35
			C52.88,6.33,52.5,6.28,52.1,6.2v0.33c0.33,0.06,0.65,0.11,0.97,0.13v11.85c-1.68-0.38-2.96-0.86-4.2-1.32
			c-1.8-0.67-3.51-1.32-6.17-1.49v-3.65c-0.11,0.11-0.22,0.21-0.33,0.3v3.33c-0.55-0.04-1.13-0.04-1.7-0.02
			c0.1,0.11,0.21,0.21,0.3,0.32c0.47-0.01,0.94,0,1.4,0.03v1.51c0.12,0.13,0.22,0.26,0.33,0.38v-1.88c2.6,0.18,4.28,0.81,6.05,1.48
			c1.27,0.47,2.58,0.97,4.32,1.35v13.32c0.11,0.03,0.21,0.05,0.33,0.07V6.36L53.25,6.35 M42.7,29.32v-6.37
			c-0.11-0.14-0.21-0.28-0.33-0.41v6.75c-1.07-0.07-2.1-0.07-3.07-0.01v0.34h-0.02c1.02-0.07,2.11-0.07,3.24,0.01
			c2.48,0.19,4.19,0.72,5.64,1.26c-0.15-0.15-0.31-0.33-0.47-0.52C46.38,29.91,44.82,29.49,42.7,29.32 M31.92,18.77V7.3
			c-0.13,0.1-0.23,0.19-0.33,0.25v24.89c0.04-0.04,0.16-0.17,0.33-0.35V19.32c0.42-0.64,1.04-1.19,1.79-1.65v-0.37
			C32.99,17.71,32.38,18.2,31.92,18.77 M16.72,3.43c-0.37,0.03-0.73,0.07-1.1,0.13c0.35-0.04,0.7-0.08,1.03-0.08
			c0.88,0,1.77,0.09,2.66,0.29c3.67,0.27,6.79,1.58,8.05,3.51v5.82c0.14,0.72,0.25,1.49,0.33,2.31V7.18l-0.03-0.04
			C26.08,4.65,21.58,3.12,16.72,3.43"/>
		<path class="st1" d="M5.87,6.94c0,0,2.28-0.57,2.28,2.09v19.45c0,2.46-2.28,3.88-2.28,3.88v0.44c1.31-0.1,3.05-1.05,4.49-1.6
			c1.62-0.62,4.1-1.41,7.37-1.81c2.68-0.31,10.08-2.02,10.08-11.34c0-11.51-5.99-14.58-11.15-14.58c-2.08,0-4.62,1.12-6.03,1.62
			C9.37,5.54,7.6,6.24,5.87,6.36V6.94 M17.83,28.07c-6.64,2.09-6.71-1.15-6.71-5.22V6.11c4.69-2.22,13.26-2.03,13.26,11
			C24.39,21.19,22.13,26.71,17.83,28.07 M39.89,14.86c1.37-1.47,3.35-3.45,6.83-6.3c0.18-0.14,0.36-0.28,0.53-0.41
			c2.47-1.81,3.93-1.69,4.15-1.69c0.38-0.02,0.63,0.04,0.71,0.07V6.2c-2.41-0.6-2.94-0.93-4.78-1.56v0.35
			c0.56,0.18,0.65,0.28,0.72,0.55c0.07,0.24-0.11,0.65-0.5,0.92c-5.46,3.69-10.82,9.74-10.82,9.76V7.71c0-1.48,0.34-3.29,2.69-3.89
			l0.02-0.01l0.01-0.33c-2.84,0.3-6.25,1.2-7.86,3.69v0.38c0.65-0.42,2.12-2.18,2.12,1.68v19.19c0,2.08-2.37,4.25-2.12,4.02v0.72
			c1.71-2.42,5.14-3.22,7.72-3.54v-0.34c-1.9,0.23-2.58-2.18-2.58-2.66v-8.27c0,0,0.31-0.38,0.86-0.98
			c1.37,1.36,4.11,4.01,6.25,7.12c1.57,2.26,3.09,5.16,4.33,6.4c1.54,0.6,3.55,1.79,5.24,1.91v-0.55
			C49.89,31.71,49.86,24.95,39.89,14.86"/>
		<path class="st2" d="M31.59,7.55c0.03-0.02,0.06-0.04,0.09-0.06C31.64,7.51,31.62,7.53,31.59,7.55 M31.54,7.63V7.15
			c1.63-2.51,5.05-3.41,7.9-3.71l0.05-0.01l0,0.05c-0.01,0-0.03,0-0.04,0c-2.84,0.3-6.25,1.2-7.86,3.69V7.6L31.54,7.63 M42.58,10.4
			c0.04-0.04,0.08-0.07,0.12-0.11v-0.06c1.46-1.29,3.07-2.6,4.69-3.72h0l0.13-0.09c0.32-0.21,0.5-0.55,0.49-0.77l-0.01-0.09
			c-0.08-0.27-0.13-0.34-0.69-0.53l-0.04-0.01V4.97c0.01,0,0.03,0.01,0.04,0.02V4.63c-0.01-0.01-0.03-0.01-0.04-0.02V4.57l0.06,0.03
			c1.83,0.63,2.37,0.96,4.78,1.56l0.04,0.01v0.05c-0.02,0-0.04-0.01-0.05-0.01c-2.41-0.6-2.94-0.93-4.78-1.56v0.35
			c0.56,0.18,0.65,0.28,0.72,0.55c0.07,0.24-0.11,0.65-0.5,0.92C45.83,7.63,44.12,9.03,42.58,10.4 M42.45,12.28
			c1.11-1.05,2.5-2.27,4.26-3.72c0.18-0.14,0.36-0.28,0.53-0.41c2.19-1.6,3.59-1.69,4.03-1.69c0.06,0,0.1,0,0.12,0
			c0.05,0,0.09,0,0.13,0c0.3,0,0.51,0.05,0.57,0.07c0.02,0,0.04,0.01,0.05,0.01v0.05l-0.06-0.02c-0.06-0.02-0.29-0.07-0.6-0.07
			h-0.18c-0.39,0-1.79,0.04-4.04,1.68c-0.17,0.13-0.35,0.27-0.52,0.41c-1.66,1.36-2.98,2.52-4.05,3.52v-0.07
			C42.62,12.13,42.54,12.21,42.45,12.28 M36.73,16.23V7.71c0-1.48,0.34-3.29,2.69-3.89l0.02-0.01c0.01,0,0.03,0,0.04,0v0.01v0.04
			l-0.06,0.01c-2.32,0.6-2.65,2.37-2.65,3.85v8.39c0.44-0.5,2.69-2.96,5.6-5.58v0.06c0.03-0.03,0.06-0.05,0.09-0.08
			C39.18,13.44,36.73,16.22,36.73,16.23 M39.05,29.3c-1.7,0-2.32-2.22-2.32-2.67v-8.27c0,0,0.31-0.38,0.86-0.98
			c1.08,1.08,3.03,2.96,4.85,5.24c-0.02-0.03-0.04-0.05-0.07-0.08v0.07c-1.79-2.24-3.7-4.08-4.78-5.16
			c-0.47,0.53-0.77,0.87-0.82,0.93v8.22l0.01,0.01v0.02c0,0.21,0.15,0.89,0.51,1.49c0.37,0.61,0.94,1.15,1.77,1.15l0.23-0.02
			l0.05-0.01v0.05c-0.01,0-0.03,0-0.04,0C39.22,29.29,39.13,29.3,39.05,29.3 M47.97,30.68c-0.09-0.1-0.18-0.2-0.26-0.31
			c-0.03-0.01-0.06-0.02-0.09-0.03c-1.14-1.43-2.46-3.86-3.81-5.82c-0.35-0.51-0.72-1.01-1.1-1.5v-0.07
			c0.39,0.5,0.77,1.02,1.14,1.55C45.32,26.64,46.76,29.35,47.97,30.68 M31.92,32.09v-0.07c0.61-0.69,1.74-2.17,1.74-3.59V17.71
			c0.01-0.01,0.03-0.02,0.04-0.03v-0.37c-0.01,0.01-0.03,0.02-0.04,0.03v-8.1c0-0.95-0.09-1.56-0.23-1.92
			c-0.14-0.37-0.32-0.47-0.53-0.47c0,0-0.01,0-0.01,0c-0.3,0-0.67,0.29-0.97,0.53V7.3c0.3-0.24,0.67-0.52,0.99-0.52
			c0.44,0,0.8,0.53,0.8,2.45v19.19C33.71,29.9,32.52,31.41,31.92,32.09 M53.08,32.18c-3.2-0.91-3.54-7.55-13.19-17.32
			c0.65-0.7,1.45-1.52,2.49-2.5v0.07c-1,0.95-1.78,1.75-2.42,2.43c0.27,0.27,0.53,0.54,0.78,0.81c-0.02,0-0.04,0-0.06,0
			c0.1,0.11,0.21,0.21,0.3,0.32c0.02,0,0.04,0,0.06,0c0.47,0.5,0.91,0.99,1.33,1.47v0.07c0.12,0.13,0.22,0.26,0.33,0.38v-0.08
			c3.21,3.72,5.06,6.88,6.4,9.27c1.58,2.82,2.46,4.58,3.97,5.02V32.18 M31.63,32.39c0.05-0.05,0.12-0.13,0.21-0.22
			C31.76,32.27,31.68,32.34,31.63,32.39 M53.45,32.86H53.4c-1.71-0.13-3.72-1.32-5.25-1.92l-0.01-0.01h-0.01
			c-0.03-0.02-0.05-0.05-0.08-0.08c0.04,0.01,0.08,0.03,0.11,0.04c1.54,0.6,3.55,1.79,5.24,1.91v-0.55c-0.1-0.01-0.2-0.04-0.29-0.06
			c0.09,0.02,0.19,0.05,0.29,0.06v-0.05c0,0,0.01,0,0.01,0l0.04,0.01V32.86 M31.54,33.32v-0.83l-0.01,0l-0.02-0.03l0.01-0.03
			l0.03-0.03l0.04-0.04v0.07c-0.01,0.01-0.02,0.02-0.02,0.02c0,0,0.01,0,0.02-0.02v0.72c1.71-2.42,5.14-3.22,7.72-3.54v0
			c0.01,0,0.03,0,0.04,0v0.05h-0.04c-2.58,0.33-6,1.14-7.69,3.52L31.54,33.32"/>
		<path class="st2" d="M39.44,3.81l0.01-0.33c0.01,0,0.03,0,0.04,0l-0.01,0.33C39.47,3.81,39.45,3.81,39.44,3.81 M47.33,4.98
			c-0.01,0-0.03-0.01-0.04-0.02V4.62c0.01,0,0.03,0.01,0.04,0.02V4.98 M52.16,6.54c-0.02,0-0.04-0.01-0.05-0.01V6.2
			c0.02,0,0.04,0.01,0.05,0.01V6.54 M31.59,7.6V7.55c0.03-0.02,0.06-0.04,0.09-0.06c0.07-0.05,0.16-0.12,0.24-0.19v0.06
			c-0.11,0.09-0.22,0.17-0.3,0.23L31.59,7.6 M42.37,10.58v-0.06c0.11-0.1,0.22-0.2,0.33-0.3v0.06c-0.04,0.04-0.08,0.08-0.12,0.11
			c-0.04,0.04-0.08,0.07-0.12,0.11C42.43,10.53,42.4,10.56,42.37,10.58 M42.37,12.43v-0.07c0.03-0.02,0.05-0.05,0.08-0.08
			c0.08-0.07,0.17-0.15,0.25-0.23v0.07C42.59,12.22,42.48,12.33,42.37,12.43 M40.98,15.99c-0.1-0.11-0.21-0.21-0.3-0.32
			c0.02,0,0.04,0,0.06,0c0.1,0.11,0.2,0.22,0.31,0.32C41.02,15.99,41,15.99,40.98,15.99 M33.66,17.71v-0.37
			c0.01-0.01,0.03-0.02,0.04-0.03v0.37C33.69,17.69,33.68,17.7,33.66,17.71 M42.7,17.91c-0.11-0.13-0.21-0.26-0.33-0.38v-0.07
			c0.11,0.13,0.22,0.25,0.33,0.38V17.91 M42.7,23.02c-0.11-0.14-0.22-0.28-0.33-0.42v-0.07c0.02,0.03,0.04,0.05,0.07,0.08
			c0.09,0.11,0.18,0.22,0.26,0.33V23.02 M39.3,29.62v-0.34c0.01,0,0.03,0,0.04,0v0.34C39.33,29.62,39.32,29.62,39.3,29.62
			 M48.17,30.89c-0.04-0.01-0.07-0.03-0.11-0.04c-0.14-0.15-0.29-0.32-0.44-0.51c0.03,0.01,0.06,0.02,0.09,0.03
			c0.09,0.11,0.17,0.21,0.26,0.31C48.03,30.76,48.1,30.83,48.17,30.89 M53.41,32.25c-0.1-0.02-0.2-0.04-0.29-0.06
			c-0.01,0-0.03-0.01-0.04-0.01v-0.05c0.11,0.03,0.22,0.06,0.33,0.07V32.25 M31.59,32.44v-0.07l0.04-0.04v0
			c0.07-0.07,0.17-0.17,0.29-0.31v0.07c-0.03,0.03-0.05,0.06-0.07,0.08c-0.09,0.1-0.16,0.17-0.21,0.22
			C31.61,32.41,31.6,32.43,31.59,32.44"/>
		<path class="st2" d="M16.83,3.48c-0.01,0-0.02,0-0.03,0C16.81,3.48,16.82,3.48,16.83,3.48 M16.51,3.48c0.05,0,0.1,0,0.15,0
			C16.6,3.48,16.56,3.48,16.51,3.48 M16.98,3.48c0,0-0.01,0-0.01,0C16.98,3.48,16.98,3.48,16.98,3.48 M17.82,3.53
			C17.81,3.53,17.81,3.53,17.82,3.53C17.81,3.53,17.81,3.53,17.82,3.53 M17.98,3.55L17.98,3.55 M18.18,3.57
			c-0.02,0-0.03,0-0.04-0.01C18.15,3.57,18.16,3.57,18.18,3.57 M18.36,3.6c-0.03,0-0.06-0.01-0.09-0.01
			C18.3,3.59,18.33,3.59,18.36,3.6 M5.87,6.94H5.82V6.32h0.04c1.72-0.13,3.49-0.82,4.74-1.26c1.4-0.49,3.91-1.6,6-1.62
			C16.3,3.46,16,3.5,15.69,3.55c-1.86,0.25-3.88,1.12-5.07,1.55C9.37,5.54,7.6,6.24,5.87,6.36V6.94L5.86,6.9L5.87,6.94 M5.82,7.01
			V6.94h0.04v0.05L5.82,7.01 M27.36,13.09c-1.29-6.48-5.16-8.95-8.98-9.49c0.31,0.04,0.62,0.1,0.93,0.17
			c0.09,0.01,0.18,0.01,0.28,0.02c1.65,0.42,3.26,1.24,4.61,2.63c1.41,1.46,2.55,3.55,3.16,6.45V13.09 M27.69,20.33V20
			c0.08-0.61,0.12-1.25,0.12-1.94c0-0.96-0.04-1.86-0.12-2.7c0,0.01,0,0.03,0,0.04v-0.44c0.11,0.96,0.16,1.99,0.16,3.1
			C27.85,18.88,27.79,19.63,27.69,20.33 M18.99,29.24c-0.08,0-0.16,0-0.23,0c2.65-0.51,7.17-2.17,8.6-7.52v0.17
			C25.92,26.99,21.65,28.68,18.99,29.24 M17.93,29.37c0.22-0.03,0.46-0.07,0.73-0.12C18.4,29.31,18.15,29.34,17.93,29.37
			 M16.76,29.53c0.31-0.05,0.64-0.09,0.97-0.13C17.39,29.44,17.07,29.48,16.76,29.53 M16.48,29.57c0.09-0.01,0.18-0.03,0.27-0.04
			C16.66,29.54,16.57,29.56,16.48,29.57 M16.22,29.61c0.03,0,0.07-0.01,0.11-0.02C16.29,29.6,16.26,29.61,16.22,29.61 M6.23,32.1
			H6.2v-0.04c0.21-0.17,0.49-0.42,0.77-0.74c0.57-0.66,1.13-1.62,1.13-2.84V18.36c0.02-0.01,0.04-0.01,0.05-0.02V18
			c-0.02,0.01-0.04,0.01-0.05,0.02V9.04c0-1.84-1.07-2.09-1.73-2.09c-0.06,0-0.11,0-0.16,0V6.9c-0.03,0-0.06,0-0.09,0.01
			C6.18,6.9,6.26,6.89,6.36,6.89c0.67,0,1.79,0.28,1.79,2.15v19.45C8.15,30.32,6.88,31.58,6.23,32.1 M5.87,32.86H5.82v-0.52
			l0.02-0.02c0,0,0.01-0.01,0.03-0.02v0.06c0,0,0.13-0.08,0.32-0.23c-0.19,0.15-0.32,0.23-0.32,0.23v0.44
			c1.31-0.1,3.05-1.05,4.49-1.6c1.19-0.45,2.84-1,4.93-1.42c0.25-0.03,0.5-0.06,0.76-0.09c-2.44,0.42-4.35,1.05-5.67,1.55
			C8.94,31.8,7.2,32.75,5.87,32.86"/>
		<path class="st2" d="M19.59,3.79c-0.09-0.01-0.18-0.02-0.28-0.02C19,3.7,18.69,3.64,18.37,3.6c0,0-0.01,0-0.01,0
			c-0.03,0-0.06-0.01-0.09-0.01c-0.03,0-0.06-0.01-0.09-0.01c-0.01,0-0.03,0-0.04-0.01c-0.05-0.01-0.1-0.01-0.16-0.02l0,0
			c-0.05-0.01-0.11-0.01-0.16-0.02c0,0-0.01,0-0.01,0c-0.27-0.03-0.55-0.04-0.82-0.05c0,0-0.01,0-0.01,0c-0.05,0-0.09,0-0.14,0
			c-0.01,0-0.02,0-0.03,0c-0.05,0-0.1,0-0.15,0c-0.05,0-0.1,0-0.15,0c-0.27,0.01-0.54,0.03-0.81,0.07C16,3.5,16.3,3.46,16.61,3.44
			c0.01,0,0.03,0,0.04,0C17.62,3.44,18.61,3.54,19.59,3.79 M5.87,6.99V6.94c0,0,0.09-0.02,0.24-0.04C6.13,6.9,6.16,6.9,6.2,6.9v0.05
			C6.01,6.96,5.88,6.99,5.87,6.99L5.87,6.99 M27.69,15.41c0-0.01,0-0.03,0-0.04c-0.08-0.81-0.19-1.57-0.33-2.28v-0.23
			c0.14,0.66,0.25,1.36,0.33,2.1V15.41 M8.09,18.36v-0.34c0.02-0.01,0.04-0.01,0.05-0.02v0.34C8.13,18.35,8.11,18.35,8.09,18.36
			 M27.36,21.89v-0.17c0.14-0.53,0.25-1.11,0.33-1.72v0.33C27.61,20.88,27.49,21.4,27.36,21.89 M15.28,29.79
			c0.31-0.06,0.62-0.12,0.94-0.17c0.03,0,0.07-0.01,0.11-0.02c0.05-0.01,0.1-0.02,0.15-0.02c0.09-0.01,0.18-0.03,0.27-0.04
			c0,0,0,0,0.01,0c0.31-0.05,0.64-0.09,0.97-0.13c0.07-0.01,0.13-0.02,0.2-0.03c0.22-0.03,0.47-0.06,0.73-0.12
			c0.03-0.01,0.07-0.01,0.1-0.02c0.08,0,0.16,0,0.23,0c-0.48,0.1-0.91,0.17-1.26,0.21c-0.59,0.07-1.15,0.15-1.69,0.24
			C15.78,29.72,15.53,29.76,15.28,29.79 M5.87,32.37v-0.06c0.05-0.03,0.17-0.12,0.33-0.24v0.04h0.03c-0.02,0.01-0.03,0.02-0.05,0.04
			C6,32.28,5.87,32.37,5.87,32.37"/>
		<path class="st2" d="M11.13,16.93V6.11c1.34-0.63,2.99-1.07,4.67-1.07c0.26,0,0.52,0.01,0.78,0.03v0.05
			c-0.26-0.02-0.52-0.03-0.78-0.03c-1.66,0-3.3,0.43-4.62,1.05v10.77C11.15,16.92,11.14,16.92,11.13,16.93 M24.39,17.09
			c0-0.12-0.01-0.23-0.01-0.35c-0.02-0.01-0.03-0.01-0.05-0.02c-0.11-8.2-3.68-11.12-7.44-11.57V5.11c-0.02,0-0.04-0.01-0.06-0.01
			C20.7,5.54,24.38,8.56,24.39,17.09 M17.83,28.07l-0.01-0.04c4.27-1.33,6.52-6.85,6.51-10.91c0-0.01,0-0.02,0-0.03
			c0.02,0.01,0.04,0.01,0.05,0.02c0,0,0,0.01,0,0.01C24.39,21.19,22.13,26.71,17.83,28.07 M16.83,28.35
			c0.02-0.01,0.04-0.01,0.07-0.02v-0.05c0.3-0.08,0.6-0.17,0.93-0.27l0.01,0.04C17.48,28.18,17.14,28.27,16.83,28.35 M14.38,28.72
			c-3.22,0-3.26-2.68-3.26-5.87v-5.57c0.01,0,0.03-0.01,0.04-0.02v5.59c0,1.59,0.02,3.06,0.42,4.12c0.41,1.06,1.2,1.71,2.79,1.71
			c0.61,0,1.33-0.1,2.19-0.3v0.05C15.71,28.62,14.99,28.72,14.38,28.72"/>
		<path class="st2" d="M16.89,5.16c-0.11-0.01-0.21-0.02-0.32-0.03V5.07c0.09,0.01,0.18,0.02,0.26,0.03c0.02,0,0.04,0.01,0.06,0.01
			V5.16 M24.39,17.1c-0.02-0.01-0.04-0.01-0.05-0.02c0-0.12,0-0.23,0-0.35c0.02,0.01,0.03,0.01,0.05,0.02
			C24.38,16.86,24.39,16.97,24.39,17.1C24.39,17.09,24.39,17.1,24.39,17.1 M11.13,17.28v-0.35c0.01,0,0.03-0.01,0.04-0.02v0.35
			C11.15,17.26,11.14,17.27,11.13,17.28 M16.57,28.42v-0.05c0.11-0.02,0.21-0.05,0.32-0.08v0.05c-0.02,0.01-0.04,0.01-0.07,0.02
			C16.74,28.38,16.65,28.4,16.57,28.42"/>
		<path class="st2" d="M14.38,28.77c-1.62,0-2.47-0.69-2.88-1.77c-0.41-1.08-0.42-2.56-0.42-4.15V6.08l0.03-0.02
			c1.34-0.64,3-1.07,4.69-1.07c2.11,0,4.27,0.7,5.91,2.56c1.63,1.86,2.73,4.89,2.73,9.55c0,4.1-2.25,9.64-6.58,11l-0.02-0.04
			c4.3-1.35,6.56-6.88,6.56-10.96c0,0,0-0.01,0-0.01c0,0,0,0,0,0c0-8.54-3.69-11.55-7.55-11.99c-0.09-0.01-0.18-0.02-0.26-0.03
			c-0.26-0.02-0.52-0.03-0.78-0.03c-1.68,0-3.33,0.44-4.67,1.07v16.74c0,3.19,0.04,5.87,3.26,5.87c0.61,0,1.33-0.1,2.19-0.3
			c0.08-0.02,0.17-0.04,0.26-0.06c0.32-0.08,0.65-0.18,1.01-0.29l0.02,0.04C16.41,28.57,15.27,28.77,14.38,28.77 M5.91,32.39v0.37
			c1.28-0.12,3-1.05,4.44-1.6c1.62-0.62,4.1-1.41,7.37-1.81c2.67-0.32,10.03-2,10.03-11.29c0-11.5-5.96-14.53-11.1-14.54
			c-2.07,0-4.61,1.12-6.01,1.62c-1.24,0.43-3,1.12-4.73,1.26v0.48c0.08-0.02,0.24-0.04,0.45-0.04c0.34,0,0.8,0.07,1.17,0.38
			C7.91,7.54,8.19,8.1,8.19,9.04v19.45C8.19,30.84,6.12,32.25,5.91,32.39 M5.87,32.81v-0.44c0,0,0.13-0.08,0.32-0.23
			c0.02-0.01,0.03-0.02,0.05-0.04c0.64-0.52,1.91-1.78,1.91-3.61V9.04c0-1.86-1.12-2.15-1.79-2.15c-0.1,0-0.18,0.01-0.26,0.01
			C5.96,6.92,5.87,6.94,5.87,6.94V6.36C7.6,6.24,9.37,5.54,10.62,5.1c1.19-0.43,3.21-1.3,5.07-1.55c0.28-0.04,0.55-0.06,0.81-0.07
			c0.05,0,0.1,0,0.15,0c0.05,0,0.1,0,0.15,0c0.01,0,0.02,0,0.03,0c0.05,0,0.09,0,0.14,0c0,0,0.01,0,0.01,0
			c0.27,0.01,0.55,0.02,0.82,0.05c0,0,0.01,0,0.01,0c0.05,0,0.11,0.01,0.16,0.02l0,0c0.05,0,0.1,0.01,0.16,0.02
			c0.01,0,0.03,0,0.04,0.01c0.03,0,0.06,0.01,0.09,0.01c0.03,0,0.06,0.01,0.09,0.01c0,0,0.01,0,0.01,0c3.83,0.54,7.7,3.01,8.98,9.49
			c0.14,0.71,0.25,1.47,0.33,2.28c0.08,0.84,0.12,1.74,0.12,2.7c0,0.69-0.04,1.33-0.12,1.94c-0.08,0.61-0.19,1.18-0.33,1.72
			c-1.43,5.35-5.95,7-8.6,7.52c-0.03,0.01-0.07,0.01-0.1,0.02c-0.27,0.05-0.51,0.09-0.73,0.12c-0.07,0.01-0.14,0.02-0.2,0.03
			c-0.33,0.04-0.65,0.08-0.97,0.13c0,0,0,0-0.01,0c-0.09,0.01-0.18,0.03-0.27,0.04c-0.05,0.01-0.1,0.02-0.15,0.02
			c-0.03,0.01-0.07,0.01-0.11,0.02c-0.32,0.05-0.64,0.11-0.94,0.17c-2.09,0.42-3.74,0.96-4.93,1.42
			C8.92,31.76,7.18,32.71,5.87,32.81 M31.63,32.46v0.57c1.73-2.34,5.1-3.12,7.63-3.44v-0.24l-0.2,0.01
			c-1.73-0.02-2.36-2.17-2.38-2.7l-0.01-0.01v-8.3l0.02-0.02c0,0,0.31-0.37,0.86-0.98l0.04-0.04l0.04,0.04
			c1.37,1.36,4.11,4.01,6.26,7.13c1.56,2.26,3.08,5.17,4.32,6.38c1.52,0.6,3.5,1.76,5.15,1.9V32.3c-1.77-0.31-2.65-2.16-4.33-5.14
			c-1.69-3.02-4.19-7.23-9.17-12.27l-0.04-0.03l0.04-0.04l0.03,0.04l-0.03-0.04c1.37-1.47,3.35-3.45,6.83-6.3
			c0.18-0.14,0.35-0.28,0.53-0.41c2.26-1.66,3.69-1.71,4.1-1.71h0.18c0.26,0,0.46,0.03,0.56,0.06V6.24
			c-2.35-0.59-2.91-0.92-4.68-1.53v0.25c0.52,0.17,0.65,0.3,0.72,0.58l0.02,0.12c0,0.24-0.15,0.53-0.42,0.76h0.01l-0.06,0.04
			c-0.02,0.02-0.04,0.03-0.07,0.05c-2.73,1.85-5.43,4.29-7.45,6.26c-1.01,0.98-1.85,1.85-2.44,2.48c-0.3,0.31-0.53,0.57-0.68,0.74
			l-0.18,0.2l-0.04,0.05l-0.02,0.02l-0.03-0.02l-0.06-0.01V7.71c0-1.48,0.35-3.32,2.71-3.93l0.01-0.25
			c-2.82,0.31-6.17,1.21-7.76,3.66v0.27c0.33-0.23,0.82-0.71,1.27-0.72c0.24,0,0.47,0.15,0.62,0.54c0.14,0.38,0.23,1,0.23,1.96
			v19.19c0,1.01-0.54,2.02-1.07,2.78c-0.27,0.38-0.54,0.71-0.74,0.93c-0.1,0.12-0.18,0.2-0.24,0.26L31.63,32.46 M31.59,33.16v-0.72
			c-0.01,0.01-0.02,0.02-0.02,0.02c0,0,0.01-0.01,0.02-0.02c0.01-0.01,0.03-0.03,0.05-0.05c0.05-0.05,0.12-0.12,0.21-0.22
			c0.02-0.02,0.05-0.05,0.07-0.08c0.61-0.68,1.79-2.19,1.79-3.66V9.23c0-1.91-0.36-2.45-0.8-2.45c-0.32,0-0.68,0.28-0.99,0.52
			c-0.09,0.07-0.17,0.13-0.24,0.19c-0.03,0.02-0.06,0.04-0.09,0.06V7.18c1.61-2.5,5.02-3.39,7.86-3.69l-0.01,0.33l-0.02,0.01
			c-2.35,0.6-2.69,2.42-2.69,3.89v8.52c0-0.01,2.45-2.79,5.73-5.72c0.04-0.03,0.08-0.07,0.12-0.11c1.54-1.37,3.25-2.77,4.97-3.93
			c0.39-0.27,0.57-0.68,0.5-0.92c-0.07-0.28-0.16-0.38-0.72-0.55V4.64C49.16,5.27,49.7,5.6,52.1,6.2v0.33
			c-0.06-0.02-0.27-0.07-0.57-0.07c-0.04,0-0.09,0-0.13,0c-0.02,0-0.07,0-0.12,0c-0.44,0-1.84,0.09-4.03,1.69
			c-0.17,0.13-0.35,0.27-0.53,0.41c-1.77,1.45-3.15,2.67-4.26,3.72c-0.03,0.03-0.05,0.05-0.08,0.08c-1.03,0.98-1.83,1.8-2.49,2.5
			c9.65,9.76,10,16.4,13.19,17.32c0.01,0,0.03,0.01,0.04,0.01c0.09,0.03,0.19,0.05,0.29,0.06v0.55c-1.69-0.13-3.7-1.32-5.24-1.91
			c-0.07-0.07-0.13-0.14-0.2-0.21c-1.2-1.33-2.65-4.04-4.13-6.19c-0.36-0.53-0.75-1.05-1.14-1.55c-0.09-0.11-0.18-0.22-0.26-0.33
			c-1.82-2.28-3.77-4.17-4.85-5.24c-0.55,0.61-0.86,0.98-0.86,0.98v8.27c0,0.45,0.62,2.67,2.32,2.67c0.08,0,0.17,0,0.25-0.02v0.34
			C36.73,29.94,33.29,30.75,31.59,33.16"/>
	</g>
</g>
</svg>
