<?xml version="1.0" encoding="utf-8"?>
<!-- Generator: Adobe Illustrator 23.1.0, SVG Export Plug-In . SVG Version: 6.00 Build 0)  -->
<svg version="1.1" id="Layer_1" xmlns="http://www.w3.org/2000/svg" xmlns:xlink="http://www.w3.org/1999/xlink" x="0px" y="0px"
	 viewBox="0 0 200 99" style="enable-background:new 0 0 200 99;" xml:space="preserve">
<style type="text/css">
	.st0{fill:#2A3E92;}
</style>
<g>
	<path class="st0" d="M99.67,93.43c-19,0-35.1-11.84-41.11-28.7l-2.51,0.85l-2.51,0.85C60.07,85.5,78.27,99,99.67,99
		c21.31,0,39.46-13.6,46.13-32.46l-4.91-1.91C134.82,81.39,118.63,93.43,99.67,93.43z"/>
	<path class="st0" d="M99.67,5.62c19,0,35.1,12.09,41.11,29.25l2.51-0.85l2.51-0.85C139.28,13.75,121.08,0,99.67,0
		C78.37,0,60.22,13.85,53.55,33.07l4.91,1.86C64.53,17.91,80.72,5.62,99.67,5.62z"/>
	<path class="st0" d="M199.75,52.49l-0.3,0.3c-1.25,1-3.16,0.7-3.81-0.75c-0.7-2.06-0.35-4.27-0.35-6.47h4.41v-6.47h-4.41v-4.42
		h-6.97v11.24c-1.25-3.06-3.16-4.82-6.17-6.17c-5.97-2.11-11.68,0.4-14.34,6.17c-1-3.01-2.61-4.92-5.52-6.27
		c-5.82-2.01-11.38,0.4-13.39,6.27c-1.6-3.66-3.91-5.62-7.87-6.72c-5.36-0.9-9.88,1.46-12.23,6.27v-15.1h-7.22v15.05
		c-0.9-1.81-1.91-3.06-3.46-4.37c-7.42-5.37-17.15,0-17.35,9.03v19.17H108c0-1.96-0.2-9.43-0.2-9.43l0.8,0.35
		c5.36,1.35,10.88-1.35,12.99-5.57v6.52h7.22v-6.52c2.06,4.42,6.07,6.97,10.98,6.62c2.31,0.15,4.21-5.87,4.21-4.21v4.21h2.81h2.06
		l7.02-0.1v-13.3c0-2.76,4.51-2.96,4.76-0.15c0.05,4.32,0.05,9.18,0.05,13.45h7.12v-6.97c1.3,2.96,3.06,4.72,5.97,6.12
		c5.72,1.91,11.68,0.95,13.94-6.02l-6.07-1c-1.4,2.11-6.37,2.56-7.92-1.61h14.49c0,3.41,0.05,6.02,3.16,8.28
		c3.11,2.26,8.67,0.1,8.62-1.35L199.75,52.49z M111.96,54.44c-2.51,0-4.56-2.06-4.56-4.57c-0.05-2.51,2.01-4.57,4.56-4.57
		c2.51,0,4.56,2.06,4.56,4.57S114.46,54.44,111.96,54.44z M138.68,54.44c-2.51,0-4.56-2.06-4.56-4.57
		c-0.05-2.51,2.01-4.57,4.56-4.57c2.51,0,4.56,2.06,4.56,4.57S141.19,54.44,138.68,54.44z M173.68,48.47c1.15-4.27,7.37-4.47,8.77,0
		H173.68z"/>
	<path class="st0" d="M65.68,54.44l-5.97-0.9c-3.01,2.31-6.47,1.1-7.57-1.96h14.54v9.48h7.27V56.2c1.2,4.82,7.17,6.47,10.53,2.86
		c0,1.05-0.1,2.31-0.45,3.31c-1.1,2.61-4.71,2.61-6.57,0.85l-4.26,5.52c2.71,2.16,5.47,3.16,8.97,2.86c2.91-0.3,4.71-0.8,6.97-2.81
		c1.7-1.81,2.46-3.76,2.61-6.27V38.99h-7.12v13.45c0,2.46-3.56,2.46-3.56,0V38.99h-7.12v-8.63h-7.22v15.55
		c-2.31-4.97-6.72-7.53-12.23-6.77c-3.96,0.9-6.77,3.06-8.27,6.77c-1.35-4.37-4.61-6.72-9.13-6.92c-4.76,0-8.32,2.36-9.78,6.92
		c-2.41-5.32-7.22-7.88-12.99-6.57c-3.46,1.1-5.52,2.91-7.12,6.12v-15.1H0v30.76h7.22v-6.92c2.06,4.11,5.47,6.37,10.08,6.47
		c4.91-0.3,8.02-2.61,9.98-6.92v7.38h6.97v-13.3c0.25-2.91,4.66-2.96,4.91,0v13.3h6.97v-6.97c1.6,3.56,4.11,5.72,7.92,6.67
		C62.32,61.62,65.63,55.9,65.68,54.44z M17.05,54.34c-2.51,0-4.56-2.06-4.56-4.57s2.01-4.57,4.56-4.57c2.51,0,4.56,2.06,4.56,4.57
		S19.55,54.34,17.05,54.34z M60.92,48.87h-8.87C53.4,44.36,59.46,44.26,60.92,48.87z"/>
</g>
</svg>
