<?xml version="1.0" encoding="utf-8"?>
<!-- Generator: Adobe Illustrator 23.1.0, SVG Export Plug-In . SVG Version: 6.00 Build 0)  -->
<svg version="1.1" id="Layer_1" xmlns="http://www.w3.org/2000/svg" xmlns:xlink="http://www.w3.org/1999/xlink" x="0px" y="0px"
	 viewBox="0 0 200 155" style="enable-background:new 0 0 200 155;" xml:space="preserve">
<style type="text/css">
	.st0{fill:#00B67A;}
	.st1{fill:#005128;}
</style>
<g>
	<path d="M0.05,112.1h27.44v5.1h-10.8v28.74h-5.92v-28.74H0L0.05,112.1z M26.31,121.43h5.06v4.74h0.09c0.18-0.68,0.5-1.31,0.95-1.94
		c0.45-0.63,0.99-1.22,1.67-1.71c0.63-0.54,1.36-0.95,2.17-1.26c0.77-0.32,1.58-0.5,2.4-0.5c0.63,0,1.08,0.05,1.31,0.05
		c0.23,0.05,0.5,0.09,0.72,0.09v5.19c-0.36-0.09-0.77-0.14-1.18-0.18c-0.41-0.05-0.77-0.09-1.18-0.09c-0.9,0-1.76,0.18-2.58,0.54
		c-0.81,0.36-1.49,0.9-2.12,1.58c-0.59,0.72-1.08,1.58-1.45,2.62c-0.36,1.04-0.54,2.26-0.54,3.61v11.64h-5.42L26.31,121.43z
		 M65.55,145.93h-5.33v-3.43h-0.09c-0.68,1.26-1.67,2.21-2.98,2.98c-1.31,0.77-2.67,1.13-4.02,1.13c-3.21,0-5.56-0.77-7.01-2.39
		c-1.45-1.58-2.17-4.02-2.17-7.22v-15.56h5.42v15.02c0,2.17,0.41,3.7,1.27,4.56c0.81,0.9,1.99,1.35,3.48,1.35
		c1.13,0,2.08-0.18,2.85-0.54s1.4-0.81,1.85-1.4c0.5-0.59,0.81-1.31,1.04-2.12s0.32-1.71,0.32-2.66v-14.21h5.42v24.5L65.55,145.93z
		 M74.77,138.08c0.18,1.58,0.77,2.66,1.81,3.34c1.04,0.63,2.31,0.95,3.75,0.95c0.5,0,1.08-0.05,1.72-0.14
		c0.63-0.09,1.27-0.23,1.81-0.45c0.59-0.23,1.04-0.54,1.4-0.99s0.54-0.99,0.5-1.67c-0.05-0.68-0.27-1.26-0.77-1.71
		c-0.5-0.45-1.08-0.77-1.81-1.08c-0.72-0.27-1.58-0.5-2.53-0.68s-1.9-0.41-2.89-0.63c-0.99-0.23-1.99-0.5-2.94-0.81
		s-1.76-0.72-2.53-1.31c-0.72-0.54-1.36-1.22-1.76-2.08c-0.45-0.86-0.68-1.85-0.68-3.11c0-1.35,0.32-2.44,0.99-3.34
		c0.63-0.9,1.49-1.62,2.49-2.17c0.99-0.54,2.12-0.95,3.35-1.17c1.22-0.23,2.4-0.32,3.48-0.32c1.27,0,2.49,0.14,3.62,0.41
		c1.13,0.27,2.22,0.68,3.12,1.31c0.95,0.59,1.72,1.4,2.31,2.35c0.63,0.95,0.99,2.12,1.18,3.47h-5.65c-0.27-1.31-0.86-2.17-1.76-2.62
		c-0.95-0.45-1.99-0.68-3.21-0.68c-0.36,0-0.86,0.05-1.36,0.09c-0.54,0.09-0.99,0.18-1.49,0.36c-0.45,0.18-0.86,0.45-1.18,0.77
		s-0.5,0.77-0.5,1.31c0,0.68,0.23,1.17,0.68,1.58c0.45,0.41,1.04,0.72,1.81,1.04c0.72,0.27,1.58,0.5,2.53,0.68
		c0.95,0.18,1.94,0.41,2.94,0.63c0.99,0.23,1.94,0.5,2.89,0.81c0.95,0.32,1.81,0.72,2.53,1.31c0.72,0.54,1.36,1.22,1.81,2.03
		s0.68,1.85,0.68,3.02c0,1.44-0.32,2.66-0.99,3.7c-0.68,0.99-1.54,1.85-2.58,2.48c-1.04,0.63-2.26,1.08-3.53,1.4
		c-1.31,0.27-2.58,0.45-3.84,0.45c-1.54,0-2.98-0.18-4.29-0.54c-1.31-0.36-2.49-0.9-3.44-1.58c-0.95-0.72-1.72-1.58-2.26-2.66
		c-0.54-1.04-0.86-2.3-0.9-3.79h5.47v0.05L74.77,138.08z M92.63,121.43h4.11v-7.4h5.42v7.35h4.88v4.02h-4.88v13.08
		c0,0.59,0.05,1.04,0.09,1.49c0.05,0.41,0.18,0.77,0.32,1.04c0.18,0.27,0.45,0.5,0.77,0.63c0.36,0.14,0.81,0.23,1.45,0.23
		c0.36,0,0.77,0,1.13-0.05s0.77-0.09,1.13-0.18v4.2c-0.59,0.09-1.18,0.14-1.76,0.18c-0.59,0.09-1.13,0.09-1.76,0.09
		c-1.45,0-2.58-0.14-3.44-0.41s-1.54-0.68-2.03-1.17c-0.5-0.54-0.81-1.17-0.99-1.94s-0.27-1.71-0.32-2.71v-14.44h-4.11v-4.11
		L92.63,121.43z M110.85,121.43h5.11v3.34h0.09c0.77-1.44,1.81-2.44,3.16-3.07c1.36-0.63,2.8-0.95,4.43-0.95
		c1.94,0,3.62,0.32,5.06,1.04c1.45,0.68,2.62,1.58,3.57,2.8c0.95,1.17,1.67,2.57,2.12,4.15c0.45,1.58,0.72,3.29,0.72,5.05
		c0,1.67-0.23,3.25-0.63,4.78c-0.45,1.53-1.08,2.93-1.94,4.11c-0.86,1.17-1.94,2.12-3.3,2.84c-1.36,0.72-2.89,1.08-4.7,1.08
		c-0.77,0-1.58-0.09-2.35-0.23s-1.54-0.36-2.26-0.68c-0.72-0.32-1.4-0.72-1.99-1.22c-0.63-0.5-1.13-1.08-1.54-1.71h-0.09V155h-5.42
		v-33.57L110.85,121.43z M129.79,133.71c0-1.08-0.14-2.17-0.45-3.2c-0.27-1.04-0.72-1.94-1.31-2.75c-0.59-0.81-1.31-1.44-2.12-1.94
		c-0.86-0.5-1.85-0.72-2.94-0.72c-2.26,0-3.98,0.77-5.15,2.35c-1.13,1.58-1.72,3.7-1.72,6.32c0,1.26,0.14,2.39,0.45,3.43
		s0.72,1.94,1.36,2.71c0.59,0.77,1.31,1.35,2.17,1.8c0.86,0.45,1.81,0.68,2.94,0.68c1.27,0,2.26-0.27,3.12-0.77s1.54-1.17,2.12-1.94
		c0.54-0.81,0.95-1.71,1.18-2.75C129.66,135.83,129.79,134.79,129.79,133.71z M139.33,112.1h5.42v5.1h-5.42V112.1z M139.33,121.43
		h5.42v24.5h-5.42V121.43z M149.59,112.1h5.42v33.84h-5.42L149.59,112.1z M171.56,146.61c-1.94,0-3.71-0.32-5.24-0.99
		c-1.54-0.68-2.8-1.53-3.89-2.66c-1.04-1.13-1.85-2.53-2.4-4.11c-0.54-1.58-0.86-3.34-0.86-5.19s0.27-3.56,0.86-5.14
		c0.54-1.58,1.36-2.93,2.4-4.11c1.04-1.13,2.35-2.03,3.89-2.66c1.54-0.63,3.3-0.99,5.24-0.99c1.94,0,3.71,0.32,5.24,0.99
		c1.54,0.63,2.8,1.53,3.89,2.66c1.04,1.13,1.85,2.53,2.4,4.11c0.54,1.58,0.86,3.29,0.86,5.14c0,1.89-0.27,3.61-0.86,5.19
		c-0.59,1.58-1.36,2.93-2.4,4.11c-1.04,1.13-2.35,2.03-3.89,2.66C175.27,146.25,173.55,146.61,171.56,146.61z M171.56,142.32
		c1.18,0,2.26-0.27,3.12-0.77c0.9-0.5,1.58-1.17,2.17-1.99c0.59-0.81,0.99-1.76,1.27-2.75c0.27-1.04,0.41-2.08,0.41-3.16
		c0-1.04-0.14-2.08-0.41-3.11s-0.68-1.94-1.27-2.75c-0.59-0.81-1.31-1.44-2.17-1.94c-0.9-0.5-1.94-0.77-3.12-0.77
		c-1.18,0-2.26,0.27-3.12,0.77c-0.9,0.5-1.58,1.17-2.17,1.94c-0.59,0.81-0.99,1.71-1.27,2.75s-0.41,2.08-0.41,3.11
		c0,1.08,0.14,2.12,0.41,3.16c0.27,1.04,0.68,1.94,1.27,2.75c0.59,0.81,1.31,1.49,2.17,1.99
		C169.35,142.1,170.39,142.32,171.56,142.32z M185.58,121.43h4.11v-7.4h5.42v7.35H200v4.02h-4.88v13.08c0,0.59,0.05,1.04,0.09,1.49
		c0.05,0.41,0.18,0.77,0.32,1.04c0.18,0.27,0.45,0.5,0.77,0.63c0.36,0.14,0.81,0.23,1.45,0.23c0.36,0,0.77,0,1.13-0.05
		c0.36-0.05,0.77-0.09,1.13-0.18v4.2c-0.59,0.09-1.18,0.14-1.76,0.18c-0.59,0.09-1.13,0.09-1.76,0.09c-1.45,0-2.58-0.14-3.44-0.41
		s-1.54-0.68-2.03-1.17c-0.5-0.54-0.81-1.17-0.99-1.94c-0.18-0.77-0.27-1.71-0.32-2.71v-14.44h-4.11v-4.11V121.43z"/>
	<g>
		<path class="st0" d="M153.02,38.09h-40.15L100.52,0L88.09,38.09l-40.15-0.07l32.47,23.57L67.98,99.68l32.47-23.57l32.47,23.57
			l-12.36-38.09L153.02,38.09z"/>
		<path class="st1" d="M123.33,70.2l-2.78-8.61l-20.04,14.52L123.33,70.2z"/>
	</g>
</g>
</svg>
