<?xml version="1.0" encoding="utf-8"?>
<!-- Generator: Adobe Illustrator 23.1.0, SVG Export Plug-In . SVG Version: 6.00 Build 0)  -->
<svg version="1.1" id="Layer_1" xmlns="http://www.w3.org/2000/svg" xmlns:xlink="http://www.w3.org/1999/xlink" x="0px" y="0px"
	 viewBox="0 0 100 46" style="enable-background:new 0 0 100 46;" xml:space="preserve">
<style type="text/css">
	.st0{fill:#AD1E2F;}
	.st1{fill:#FFFFFF;}
</style>
<g>
	<g>
		<g>
			<path class="st0" d="M6.41,6.89v15.45H0.09V1.19h8.13c2.47,0,4.37,0.62,5.74,1.81c1.5,1.37,2.3,3.09,2.3,5.21
				s-0.93,3.93-2.83,5.43l3.67,8.74h-6.63l-3.05-6.8v-5.43h0.49c1.33,0,1.99-0.57,1.99-1.72c0-1.02-0.75-1.5-2.3-1.5L6.41,6.89
				L6.41,6.89z"/>
			<path class="st0" d="M18.74,7.11h5.83v8.74c0,0.88,0.35,1.32,1.1,1.32c0.71,0,1.1-0.44,1.1-1.32V7.11h5.83v8.61
				c0,1.99-0.66,3.71-2.03,5.08c-1.33,1.37-2.96,2.07-4.9,2.07c-2.21,0-3.98-0.79-5.35-2.38c-1.06-1.24-1.59-3-1.59-5.21L18.74,7.11
				z"/>
			<path class="st0" d="M35.57,16.47c0.35,0.71,0.8,1.28,1.37,1.72c0.53,0.44,1.06,0.62,1.55,0.62c0.71,0,1.06-0.4,1.06-1.15
				c0-0.31-0.09-0.57-0.22-0.79c-0.13-0.22-0.4-0.4-0.71-0.53l-1.24-0.57c-0.84-0.4-1.5-0.97-1.99-1.77
				c-0.44-0.79-0.71-1.77-0.71-2.87c0-1.5,0.49-2.65,1.41-3.44c0.93-0.84,2.25-1.24,3.98-1.24c1.68,0,3.18,0.44,4.55,1.32
				l-1.33,3.97c-0.84-1.1-1.68-1.68-2.47-1.68c-0.27,0-0.49,0.09-0.66,0.26c-0.18,0.18-0.27,0.4-0.27,0.66
				c0,0.4,0.13,0.71,0.35,0.93c0.22,0.22,0.71,0.49,1.33,0.71c1.41,0.49,2.3,1.15,2.7,2.03s0.62,1.81,0.62,2.78
				c0,1.55-0.44,2.78-1.33,3.71c-0.88,0.93-2.08,1.37-3.58,1.37c-0.84,0-1.77-0.18-2.78-0.44c-1.06-0.31-2.03-0.71-2.92-1.24
				L35.57,16.47z"/>
			<path class="st0" d="M46.71,16.47c0.35,0.71,0.8,1.28,1.37,1.72c0.53,0.44,1.06,0.62,1.55,0.62c0.71,0,1.06-0.4,1.06-1.15
				c0-0.31-0.09-0.57-0.22-0.79c-0.13-0.22-0.4-0.4-0.71-0.53l-1.24-0.57c-0.84-0.4-1.5-0.97-1.99-1.77
				c-0.44-0.79-0.71-1.77-0.71-2.87c0-1.5,0.49-2.65,1.41-3.44c0.93-0.84,2.25-1.24,3.98-1.24c1.68,0,3.18,0.44,4.55,1.32
				l-1.33,3.97c-0.84-1.1-1.68-1.68-2.47-1.68c-0.27,0-0.49,0.09-0.66,0.26c-0.18,0.18-0.27,0.4-0.27,0.66
				c0,0.4,0.13,0.71,0.35,0.93c0.22,0.22,0.71,0.49,1.33,0.71c1.41,0.49,2.3,1.15,2.7,2.03s0.62,1.81,0.62,2.78
				c0,1.55-0.44,2.78-1.33,3.71c-0.88,0.93-2.08,1.37-3.58,1.37c-0.84,0-1.77-0.18-2.78-0.44c-1.06-0.31-2.03-0.71-2.92-1.24
				L46.71,16.47z"/>
			<path class="st0" d="M63.99,6.89v15.45h-5.83V6.89H63.99z M61.11,0c0.8,0,1.46,0.26,2.03,0.84s0.88,1.19,0.88,1.94
				c0,0.79-0.27,1.46-0.84,1.99c-0.53,0.53-1.24,0.79-2.08,0.79s-1.55-0.26-2.08-0.79c-0.53-0.53-0.84-1.19-0.84-1.99
				c0-0.75,0.27-1.41,0.88-1.94C59.61,0.31,60.32,0,61.11,0z"/>
			<path class="st0" d="M76.05,16.55v6c-0.49,0.09-0.93,0.13-1.33,0.13c-2.34,0-4.29-0.75-5.83-2.3c-1.55-1.55-2.34-3.44-2.34-5.74
				c0-2.25,0.8-4.15,2.34-5.69c1.59-1.55,3.49-2.34,5.74-2.34c2.52,0,4.51,0.75,5.92,2.21c1.46,1.46,2.17,3.44,2.17,6v7.59h-5.83
				v-7.24c0-0.79-0.18-1.46-0.62-1.94c-0.4-0.49-0.93-0.71-1.59-0.71c-0.62,0-1.15,0.22-1.59,0.66c-0.44,0.44-0.66,0.97-0.66,1.59
				c0,0.62,0.22,1.15,0.62,1.59c0.4,0.4,0.93,0.62,1.55,0.62C75.12,16.95,75.61,16.82,76.05,16.55z"/>
			<path class="st0" d="M100,22.34h-5.83V13.6c0-0.88-0.35-1.32-1.1-1.32c-0.71,0-1.1,0.44-1.1,1.32v8.74h-5.83v-8.61
				c0-2.03,0.66-3.71,2.03-5.08c1.33-1.37,2.96-2.07,4.9-2.07c2.21,0,4.02,0.79,5.35,2.38c1.06,1.24,1.59,3,1.59,5.21L100,22.34
				L100,22.34z"/>
		</g>
	</g>
	<g>
		<path d="M6.32,30.5v15.45H0V24.81h8.13c2.47,0,4.37,0.62,5.74,1.81c1.5,1.37,2.3,3.09,2.3,5.21s-0.93,3.93-2.83,5.43L17.01,46
			h-6.63l-3.05-6.8v-5.47h0.49c1.33,0,1.99-0.57,1.99-1.72c0-1.02-0.75-1.5-2.3-1.5L6.32,30.5L6.32,30.5z"/>
		<path d="M26.78,35.36v5.56h-1.81v5.03h-6.32V32.49c0-2.6,0.71-4.64,2.12-6.05c1.41-1.46,3.45-2.16,6.01-2.16
			c2.47,0,4.33,0.66,5.52,1.94c1.19,1.32,1.81,3.31,1.81,6.05v13.69h-6.32V32.71c0-0.84-0.09-1.41-0.31-1.72
			c-0.18-0.31-0.57-0.49-1.06-0.49c-0.97,0-1.46,0.75-1.46,2.21v2.65L26.78,35.36L26.78,35.36z"/>
		<path d="M44.28,24.81v21.15h-6.32V24.81H44.28z"/>
		<path d="M48.08,24.81h6.32v12.58c0,0.97,0.18,1.63,0.49,1.94c0.31,0.31,0.93,0.49,1.9,0.49h0.31v6.14h-1.68
			c-2.3,0-4.11-0.66-5.39-2.03c-1.28-1.32-1.94-3.18-1.94-5.56V24.81z"/>
	</g>
</g>
<g>
	<g>
		<rect x="61.89" y="37.88" width="38.11" height="1.42"/>
		<path d="M99.36,36.04c-0.51,0.29-1.28,0.37-1.45,0.4c-0.34,0.03-0.6,0.03-0.81,0.03H62.45c0,0-0.34-4.65-0.55-7
			c5.89,0,11.82,0,17.71,0c0.9,0.03,2.22,0.09,3.76,0.26c9.94,0.98,16.81,4.1,16.64,5.39C99.95,35.73,99.36,36.04,99.36,36.04z"/>
	</g>
	<g>
		<path class="st1" d="M74.21,33.58c-1.41,0-2.82,0-4.22,0c-0.6-0.77-1.19-1.51-1.79-2.27c1.32,0,2.65,0,3.97,0
			C72.8,32.07,73.53,32.81,74.21,33.58z"/>
		<path class="st1" d="M80.18,33.58c-1.41,0-2.82,0-4.27,0c-0.6-0.77-1.19-1.51-1.79-2.27c1.32,0,2.65,0,3.97,0
			C78.82,32.07,79.5,32.81,80.18,33.58z"/>
		<path class="st1" d="M94.39,33.92c-4.1-0.11-8.19-0.23-12.29-0.34c-0.6-0.77-1.19-1.51-1.83-2.27c1.96,0.09,4.57,0.28,7.47,0.82
			C90.55,32.67,92.81,33.32,94.39,33.92z"/>
		<path class="st1" d="M68.41,33.58c-0.98,0-1.92,0-2.9,0c-0.17-0.77-0.34-1.54-0.55-2.27c0.47,0,0.94,0,1.41,0
			C67.04,32.07,67.72,32.84,68.41,33.58z"/>
	</g>
</g>
</svg>
